<svg width="300" height="300" viewBox="0 0 300 300" fill="none" xmlns="http://www.w3.org/2000/svg">
<path d="M19.5617 2.54951C18.8296 2.75152 18.1766 3.31238 17.8478 4.03788C17.6934 4.3733 17.6674 4.5164 17.673 5.07346C17.6786 5.63052 17.7075 5.77274 17.8686 6.10308C18.6395 7.70099 20.7155 8.10247 22.0002 6.90636C22.8226 6.14575 23.052 5.08211 22.6225 3.9951C22.4112 3.44814 21.7807 2.83998 21.2161 2.64522C20.7066 2.46316 20.027 2.42652 19.5617 2.54951ZM20.9506 2.85332C21.3429 2.96931 21.481 3.05542 21.8481 3.40284C22.2085 3.75715 22.299 3.89159 22.4264 4.27683C22.5113 4.53365 22.5763 4.85195 22.5777 4.99461C22.5792 5.13728 22.5207 5.45756 22.441 5.71703C22.3214 6.10624 22.2336 6.24354 21.8805 6.60933C21.5205 6.96843 21.3842 7.05895 20.9945 7.18752C20.7346 7.27323 20.4128 7.33955 20.2688 7.34187C20.1247 7.34418 19.8017 7.28822 19.5402 7.21089C19.1479 7.0949 19.0098 7.00879 18.6427 6.66138C18.2824 6.30706 18.1918 6.17262 18.0644 5.78738C17.9795 5.53056 17.9145 5.21226 17.9131 5.0696C17.9116 4.92694 17.9702 4.60665 18.0499 4.34718C18.1694 3.95797 18.2572 3.82067 18.6103 3.45488C18.9566 3.1028 19.1134 2.99836 19.4758 2.87703C20.0434 2.69125 20.3726 2.68595 20.9506 2.85332Z" fill="black"/>
<path d="M53.6307 2.33487C53.1114 2.54026 52.541 3.12696 52.3542 3.65314C52.0271 4.54848 52.2356 5.49636 52.9077 6.14463C53.3927 6.61245 53.8817 6.80163 54.5677 6.7906C55.2537 6.77957 55.7387 6.57473 56.2141 6.09148C56.6895 5.60822 56.8835 5.12269 56.8767 4.44335C56.8698 3.76401 56.666 3.28487 56.181 2.81705C55.6891 2.34255 55.207 2.16005 54.5005 2.1782C54.1712 2.1835 53.8836 2.23568 53.6307 2.33487ZM55.2105 2.50652C55.6783 2.63489 56.1145 3.02196 56.3871 3.52716C56.59 3.91119 56.6257 4.04651 56.6297 4.44052C56.6413 5.5954 55.7177 6.53431 54.5583 6.53935C53.7282 6.5459 53.0655 6.14888 52.6876 5.41436C52.4986 5.0369 52.4628 4.89479 52.4589 4.50757C52.4649 3.73969 52.8491 3.06765 53.4905 2.71082C54.0567 2.38917 54.5706 2.32656 55.2105 2.50652Z" fill="black"/>
<path d="M88.2741 1.92066C87.3233 2.20093 86.748 2.97796 86.7579 3.963C86.7665 4.81218 87.1916 5.46442 87.9568 5.82581C88.7703 6.20682 89.8109 5.98626 90.401 5.3177C90.7877 4.88343 90.9347 4.49378 90.9287 3.89596C90.9226 3.29814 90.7678 2.91334 90.3725 2.49164C89.8731 1.95611 88.9718 1.7124 88.2741 1.92066ZM89.691 2.27158C90.3116 2.58095 90.6882 3.1864 90.6954 3.89971C90.7061 4.95269 89.9251 5.74661 88.8618 5.7637C87.8054 5.78069 86.9879 4.99207 86.9842 3.95257C86.9771 2.5666 88.443 1.65975 89.691 2.27158Z" fill="black"/>
<path d="M122.446 1.6703C122.029 1.82648 121.54 2.33714 121.4 2.76064C121.16 3.47792 121.325 4.18869 121.852 4.68982C123.023 5.82606 125.011 4.97877 124.994 3.34835C124.984 2.32254 124.132 1.5141 123.096 1.55113C122.904 1.55422 122.61 1.61331 122.446 1.6703ZM123.6 1.80803C123.971 1.90397 124.358 2.19671 124.561 2.53318C124.721 2.79559 124.75 2.91743 124.754 3.35221C124.76 3.91606 124.666 4.14858 124.313 4.50757C123.96 4.86656 123.728 4.96542 123.158 4.97457C122.719 4.98163 122.596 4.95644 122.327 4.80449C121.94 4.58649 121.592 4.10967 121.526 3.70305C121.329 2.47642 122.41 1.48743 123.6 1.80803Z" fill="black"/>
<path d="M157 1.29829C155.598 1.68774 155.418 3.61347 156.722 4.25839C157.652 4.71225 158.806 4.15693 159.016 3.14118C159.258 1.96864 158.17 0.973731 157 1.29829ZM158.149 1.59237C158.694 1.91654 158.975 2.55071 158.83 3.12378C158.546 4.22226 157.253 4.60315 156.457 3.8278C155.688 3.09276 155.963 1.87211 156.982 1.48204C157.276 1.36861 157.866 1.42706 158.149 1.59237Z" fill="black"/>
<path d="M191.261 0.998928C190.932 1.09933 190.519 1.55442 190.426 1.90243C190.274 2.50958 190.521 3.13751 191.045 3.44842C191.439 3.68669 192.104 3.66241 192.486 3.40488C192.908 3.11951 193.083 2.78377 193.078 2.25388C193.073 1.73079 192.891 1.39399 192.483 1.13555C192.186 0.943281 191.623 0.884389 191.261 0.998928ZM192.285 1.21347C192.547 1.34515 192.818 1.68052 192.904 1.9849C193.131 2.79658 192.296 3.63894 191.464 3.4281C191.085 3.33906 190.684 2.95144 190.584 2.57934C190.313 1.62566 191.382 0.77276 192.285 1.21347Z" fill="black"/>
<path d="M225.494 0.754429C224.819 1.11181 224.747 2.20008 225.383 2.63151C225.666 2.83079 226.229 2.86251 226.557 2.70096C227.26 2.35673 227.345 1.25465 226.695 0.816653C226.412 0.624165 225.808 0.593109 225.494 0.754429ZM226.559 0.900379C227.159 1.24404 227.142 2.23632 226.535 2.56543C225.866 2.9159 225.086 2.48 225.079 1.7531C225.073 1.17566 225.453 0.782265 226.03 0.773002C226.215 0.770025 226.428 0.820954 226.559 0.900379Z" fill="black"/>
<path d="M259.912 0.425343C259.305 0.768035 259.335 1.67123 259.969 1.9532C260.265 2.09112 260.471 2.08102 260.751 1.92704C261.003 1.78709 261.233 1.42329 261.23 1.17194C261.228 0.934168 261.032 0.577205 260.845 0.457901C260.576 0.285572 260.192 0.271367 259.912 0.425343ZM260.854 0.648006C261.048 0.835134 261.09 0.92958 261.093 1.16056C261.095 1.39153 261.055 1.4873 260.865 1.6806C260.675 1.87391 260.579 1.91621 260.346 1.91996C260.112 1.92371 260.016 1.88449 259.822 1.69737C259.628 1.51024 259.586 1.41579 259.584 1.18482C259.581 0.95384 259.621 0.85807 259.812 0.664767C260.002 0.471464 260.097 0.42916 260.331 0.42541C260.564 0.421661 260.66 0.460878 260.854 0.648006Z" fill="black"/>
<path d="M294.214 0.213611C294.079 0.351685 294.018 0.481752 294.02 0.631208C294.021 0.780663 294.084 0.908745 294.223 1.04241C294.361 1.17607 294.492 1.23512 294.643 1.23269C294.794 1.23026 294.924 1.16703 295.06 1.02895C295.195 0.890881 295.256 0.760814 295.254 0.611359C295.253 0.461904 295.19 0.333821 295.051 0.200158C294.913 0.0664956 294.782 0.00744999 294.631 0.00987595C294.48 0.0123019 294.35 0.0755378 294.214 0.213611ZM295.011 0.24158C295.114 0.335034 295.184 0.483387 295.186 0.598875C295.188 0.857024 294.896 1.16068 294.642 1.16476C294.533 1.16652 294.381 1.09422 294.27 0.994082C294.166 0.887042 294.089 0.738799 294.088 0.630105C294.086 0.378748 294.385 0.0817798 294.645 0.0775895C294.762 0.0757149 294.913 0.141223 295.011 0.24158Z" fill="black"/>
<path d="M2.70322 20.7581C2.36819 20.8722 1.79787 21.4657 1.69848 21.8138C1.51286 22.4555 1.6552 22.9628 2.14705 23.4305C2.50047 23.7781 2.8519 23.9288 3.28407 23.9218C4.13468 23.9081 4.92245 23.1073 4.91394 22.2649C4.90961 21.8369 4.74834 21.493 4.38813 21.1523C3.90307 20.6777 3.33919 20.5509 2.70322 20.7581Z" fill="black"/>
<path d="M37.0791 20.355C36.5321 20.5337 36.0516 21.1937 36.0574 21.7643C36.0666 22.6746 37.0206 23.3931 37.9239 23.1611C38.5535 23.0015 39.082 22.3408 39.0757 21.7158C39.0696 21.1112 38.5346 20.4539 37.9295 20.3142C37.5581 20.225 37.4552 20.2334 37.0791 20.355Z" fill="black"/>
<path d="M71.4481 19.9384C71.0309 20.0742 70.7119 20.4123 70.5859 20.8491C70.4932 21.1768 70.4939 21.2447 70.5933 21.576C70.6714 21.833 70.7829 22.0078 70.9698 22.1679C71.7242 22.8216 72.8734 22.4838 73.1451 21.5282C73.2378 21.2006 73.2371 21.1327 73.1378 20.8081C73.003 20.3686 72.6773 20.0477 72.23 19.919C71.8378 19.8098 71.8378 19.8098 71.4481 19.9384Z" fill="black"/>
<path d="M106.05 19.4502C106.015 19.4643 105.899 19.4934 105.796 19.5154C105.564 19.5735 105.224 19.8643 105.082 20.1316C104.961 20.3781 104.953 20.915 105.072 21.1373C105.309 21.5752 105.703 21.8134 106.176 21.8058C106.855 21.7949 107.351 21.2909 107.344 20.6184C107.338 20.0206 106.936 19.5582 106.324 19.4661C106.214 19.4475 106.091 19.4427 106.05 19.4502Z" fill="black"/>
<path d="M139.919 19.2115C139.033 19.7625 139.431 21.1218 140.474 21.105C141.057 21.0957 141.498 20.6469 141.492 20.0695C141.487 19.492 141.036 19.0576 140.453 19.067C140.268 19.07 140.056 19.1278 139.919 19.2115Z" fill="black"/>
<path d="M174.295 18.7947C173.716 19.1506 173.752 20.0197 174.352 20.3226C174.772 20.5265 175.285 20.3823 175.521 19.9776C175.994 19.1955 175.072 18.3066 174.295 18.7947Z" fill="black"/>
<path d="M208.746 18.3021C208.473 18.4288 208.338 18.6552 208.341 19.0017C208.344 19.2734 208.379 19.368 208.538 19.5149C208.698 19.6686 208.787 19.7011 209.069 19.6966C209.35 19.6921 209.439 19.6567 209.595 19.4979C209.751 19.3391 209.784 19.2503 209.782 18.9717C209.779 18.7 209.744 18.5986 209.598 18.4583C209.404 18.2712 208.985 18.1964 208.746 18.3021Z" fill="black"/>
<path d="M243.081 17.9133C242.726 18.1024 242.662 18.6266 242.96 18.8868C243.168 19.0669 243.6 19.0464 243.79 18.8463C243.994 18.646 243.996 18.2043 243.802 18.0172C243.622 17.8434 243.292 17.7944 243.081 17.9133Z" fill="black"/>
<path d="M277.463 17.476C277.381 17.5113 277.279 17.6217 277.246 17.7173C277.106 18.0933 277.459 18.4341 277.835 18.2854C278.19 18.1438 278.185 17.6003 277.827 17.4702C277.723 17.4311 277.641 17.4052 277.634 17.4121C277.627 17.4123 277.552 17.4406 277.463 17.476Z" fill="black"/>
<path d="M19.6685 35.5216C18.8544 35.7521 18.1594 36.2253 17.6788 36.8717C16.1829 38.8866 17.11 41.6846 19.5259 42.4543C20.0903 42.6355 21.27 42.5961 21.8236 42.3834C24.3456 41.4256 25.034 38.2619 23.1286 36.4172C22.2141 35.5418 20.852 35.1832 19.6685 35.5216ZM21.952 36.076C23.5995 36.8513 24.2911 38.7494 23.5183 40.3518C23.1152 41.2008 22.2648 41.9075 21.4092 42.1115C20.9643 42.2205 20.1823 42.2331 19.7971 42.1374C18.9099 41.9206 18.1074 41.2677 17.6735 40.4185C17.4076 39.9064 17.4075 39.8996 17.3989 39.0505C17.3904 38.2013 17.3903 38.1945 17.6457 37.674C17.9482 37.0508 18.464 36.499 19.0372 36.184C19.5966 35.8761 19.8636 35.8174 20.7077 35.831C21.3938 35.8336 21.4763 35.8526 21.952 36.076Z" fill="black"/>
<path d="M53.8549 35.3662C53.2737 35.5658 52.8716 35.8372 52.417 36.3405C51.63 37.2093 51.395 38.3953 51.7766 39.4967C51.9813 40.0642 52.1139 40.2862 52.5367 40.7143C52.9527 41.1425 53.3255 41.3675 53.9105 41.5551C54.7295 41.8069 55.607 41.7317 56.4125 41.3314C56.7948 41.1418 57.4473 40.5334 57.7038 40.1148C58.1764 39.3599 58.3033 38.3318 58.027 37.4734C57.8429 36.9056 57.6824 36.6364 57.2456 36.1882C56.3443 35.265 55.0651 34.9527 53.8549 35.3662ZM55.5795 35.6171C56.7349 35.8974 57.5672 36.7809 57.785 37.9665C58.1119 39.7618 56.5375 41.4789 54.6769 41.3525C52.9468 41.2377 51.6679 39.6004 51.9941 37.9373C52.3273 36.2876 53.9564 35.2287 55.5795 35.6171Z" fill="black"/>
<path d="M88.4035 35.0827C87.9247 35.2262 87.5223 35.4637 87.1418 35.83C85.9662 36.9564 85.9364 38.7506 87.0664 39.9147C88.668 41.5672 91.4733 40.8087 92.0475 38.564C92.2919 37.6225 92.014 36.6077 91.3069 35.8785C90.565 35.1091 89.4023 34.7948 88.4035 35.0827ZM90.2948 35.5347C90.8187 35.7776 91.2829 36.2254 91.5488 36.7375C91.7309 37.1083 91.7525 37.2031 91.7591 37.8552C91.7657 38.5074 91.7461 38.6028 91.5715 38.9794C91.316 39.4998 90.861 39.9624 90.3423 40.2289C89.9668 40.4116 89.8709 40.4335 89.2124 40.4441C88.5539 40.4547 88.4576 40.4359 88.0785 40.2653C87.5546 40.0155 87.0904 39.5678 86.8314 39.0623C86.5725 38.5569 86.5026 37.7495 86.6615 37.183C86.8802 36.4253 87.5931 35.68 88.3384 35.4302C88.5367 35.3591 88.8657 35.3266 89.2705 35.3337C89.792 35.3389 89.9501 35.3703 90.2948 35.5347Z" fill="black"/>
<path d="M122.693 34.9051C122.193 35.0762 121.9 35.2644 121.561 35.6367C120.876 36.3952 120.714 37.3762 121.108 38.3822C121.214 38.6659 121.374 38.8875 121.679 39.1816C123.266 40.712 125.89 39.705 126.074 37.5006C126.227 35.718 124.423 34.3338 122.693 34.9051ZM124.191 35.1664C124.583 35.2824 124.721 35.3685 125.088 35.7159C125.449 36.0702 125.539 36.2047 125.667 36.5899C125.752 36.8467 125.816 37.165 125.818 37.3077C125.819 37.4504 125.761 37.7707 125.681 38.0301C125.562 38.4193 125.474 38.5566 125.121 38.9224C124.761 39.2815 124.624 39.372 124.235 39.5006C123.975 39.5863 123.653 39.6526 123.509 39.655C123.365 39.6573 123.042 39.6013 122.78 39.524C122.388 39.408 122.25 39.3219 121.883 38.9745C121.523 38.6202 121.432 38.4857 121.305 38.1005C121.22 37.8437 121.155 37.5254 121.153 37.3827C121.152 37.24 121.21 36.9197 121.29 36.6603C121.41 36.2711 121.497 36.1338 121.85 35.768C122.197 35.4159 122.354 35.3115 122.716 35.1901C123.284 35.0043 123.613 34.999 124.191 35.1664Z" fill="black"/>
<path d="M157.248 34.6214C156.571 34.8158 156.026 35.2594 155.738 35.8687C155.583 36.1905 155.557 36.3404 155.562 36.8296C155.56 37.3256 155.589 37.461 155.757 37.7845C155.981 38.2361 156.438 38.6636 156.9 38.86C157.148 38.9715 157.354 39.0022 157.807 38.9949C158.26 38.9876 158.465 38.9503 158.711 38.8309C159.168 38.6197 159.617 38.1776 159.832 37.719C159.993 37.3902 160.019 37.2471 160.014 36.758C160.009 36.2689 159.98 36.1266 159.812 35.8032C159.588 35.3516 159.124 34.9174 158.669 34.7277C158.318 34.5838 157.583 34.5277 157.248 34.6214ZM158.555 34.9741C159.058 35.197 159.315 35.4307 159.552 35.8957C159.958 36.6706 159.823 37.5288 159.205 38.1639C157.955 39.4274 155.813 38.5853 155.795 36.8258C155.787 36.0446 156.179 35.4132 156.889 35.0485C157.435 34.7679 158.031 34.7379 158.555 34.9741Z" fill="black"/>
<path d="M191.585 34.4092C191.031 34.5947 190.616 34.9411 190.374 35.4139C190.226 35.7016 190.193 35.8516 190.197 36.2728C190.202 36.7144 190.23 36.8294 190.412 37.1391C190.796 37.8123 191.334 38.123 192.102 38.1107C192.884 38.0981 193.437 37.7563 193.793 37.0643C193.941 36.7834 193.974 36.6266 193.97 36.2122C193.965 35.7706 193.937 35.6555 193.755 35.3459C193.532 34.9486 193.289 34.7283 192.862 34.5177C192.559 34.3731 191.865 34.3096 191.585 34.4092ZM192.816 34.7359C193.85 35.2357 194.09 36.5839 193.289 37.4053C192.949 37.7437 192.594 37.8921 192.1 37.9001C191.606 37.908 191.248 37.7711 190.902 37.4437C190.237 36.7953 190.226 35.7492 190.878 35.0796C191.387 34.5686 192.182 34.4268 192.816 34.7359Z" fill="black"/>
<path d="M225.881 34.2248C225.491 34.3738 225.219 34.6024 225.023 34.952C224.868 35.2127 224.835 35.3559 224.839 35.7228C224.843 36.1032 224.878 36.2182 225.053 36.5007C225.185 36.7024 225.393 36.9029 225.6 37.0287C225.897 37.2006 226.007 37.226 226.405 37.2128C226.796 37.2065 226.919 37.1706 227.192 36.9963C227.396 36.8707 227.6 36.6636 227.721 36.4578C227.89 36.1833 227.923 36.0605 227.919 35.6733C227.922 35.2792 227.893 35.1709 227.712 34.8816C227.322 34.2764 226.502 33.9838 225.881 34.2248ZM226.974 34.4519C228.036 34.9716 228.01 36.4736 226.93 36.9394C226.452 37.1441 225.82 37.0455 225.446 36.705C224.906 36.2245 224.869 35.3078 225.365 34.7631C225.731 34.3631 226.484 34.2151 226.974 34.4519Z" fill="black"/>
<path d="M260.279 33.998C259.766 34.1557 259.375 34.8211 259.483 35.3561C259.7 36.4465 261.15 36.7018 261.73 35.748C262.054 35.2128 261.861 34.4278 261.33 34.1102C261.054 33.9515 260.58 33.898 260.279 33.998ZM261.276 34.2605C261.711 34.5185 261.875 35.0798 261.646 35.5591C261.317 36.2574 260.482 36.4204 259.934 35.8924C259.519 35.4846 259.512 34.8256 259.926 34.4113C260.286 34.0386 260.807 33.9827 261.276 34.2605Z" fill="black"/>
<path d="M294.568 33.8341C294.316 33.9741 294.086 34.3379 294.089 34.5892C294.095 35.2142 294.764 35.6247 295.345 35.3572C296.007 35.0476 296.018 34.103 295.35 33.808C295.053 33.67 294.848 33.6801 294.568 33.8341ZM295.497 34.0638C295.691 34.2509 295.733 34.3454 295.735 34.5763C295.737 34.8073 295.697 34.9031 295.507 35.0964C295.317 35.2897 295.221 35.332 294.988 35.3357C294.755 35.3395 294.658 35.3003 294.464 35.1132C294.27 34.926 294.228 34.8316 294.226 34.6006C294.224 34.3696 294.264 34.2739 294.454 34.0806C294.644 33.8873 294.74 33.8449 294.973 33.8412C295.206 33.8374 295.303 33.8767 295.497 34.0638Z" fill="black"/>
<path d="M2.9248 54.2176C1.961 54.5728 1.4538 55.3011 1.45696 56.2931C1.45903 57.1764 1.91892 57.8756 2.73215 58.2362C3.52473 58.5904 4.54499 58.3905 5.16984 57.7622C5.9847 56.9269 5.97042 55.5139 5.13894 54.7051C4.57087 54.1639 3.62882 53.9548 2.9248 54.2176Z" fill="black"/>
<path d="M37.2053 53.8839C36.4807 54.1402 35.9127 54.9647 35.9205 55.7391C35.9285 56.5339 36.5614 57.3731 37.3044 57.5786C38.1025 57.7967 38.7389 57.6302 39.3025 57.0504C39.6014 56.7535 39.7162 56.575 39.7957 56.2951C40.021 55.5033 39.8568 54.8741 39.2749 54.3195C38.6859 53.7446 37.9983 53.5994 37.2053 53.8839Z" fill="black"/>
<path d="M71.5064 53.5432C70.0724 54.2117 70.078 56.1277 71.5047 56.7706C72.6489 57.289 73.9983 56.3908 73.9923 55.1271C73.9827 54.176 73.1513 53.374 72.191 53.3895C71.9577 53.3932 71.6976 53.4518 71.5064 53.5432Z" fill="black"/>
<path d="M105.842 53.1815C104.838 53.6528 104.618 55.0153 105.429 55.7564C106.446 56.6845 108.099 55.9513 108.086 54.579C108.081 54.1782 107.948 53.8406 107.677 53.5528C107.344 53.1981 106.972 53.0342 106.492 53.0419C106.272 53.0454 105.999 53.1042 105.842 53.1815Z" fill="black"/>
<path d="M140.19 52.8128C139.883 52.974 139.511 53.4352 139.459 53.7146C139.348 54.3483 139.566 54.8748 140.078 55.2334C140.271 55.3594 140.395 55.3846 140.82 55.3778C141.396 55.3685 141.622 55.2562 141.967 54.8022C142.129 54.5822 142.149 54.4935 142.144 54.0316C142.14 53.5696 142.118 53.4816 141.951 53.2669C141.625 52.8577 141.363 52.726 140.862 52.7069C140.546 52.6984 140.347 52.7287 140.19 52.8128Z" fill="black"/>
<path d="M174.991 52.3146C174.957 52.3287 174.84 52.3577 174.738 52.3798C174.505 52.4379 174.165 52.7287 174.023 52.996C173.902 53.2425 173.894 53.7794 174.013 54.0017C174.251 54.4395 174.644 54.6778 175.117 54.6702C175.797 54.6593 176.292 54.1553 176.286 53.4828C176.28 52.885 175.877 52.4226 175.265 52.3305C175.155 52.3119 175.032 52.3071 174.991 52.3146Z" fill="black"/>
<path d="M209.169 51.9961C209.066 52.0182 208.875 52.1232 208.746 52.2339C208.269 52.6221 208.297 53.3283 208.809 53.7277C209.348 54.1403 210.148 53.8828 210.354 53.2205C210.58 52.517 209.908 51.828 209.169 51.9961Z" fill="black"/>
<path d="M243.353 51.7048C242.705 52.0481 242.797 52.9571 243.505 53.1563C243.87 53.2592 244.239 53.0766 244.42 52.7C244.534 52.4536 244.541 52.4059 244.449 52.1628C244.273 51.6832 243.783 51.4804 243.353 51.7048Z" fill="black"/>
<path d="M277.723 51.329C277.368 51.5181 277.305 52.0423 277.602 52.3025C277.81 52.4827 278.242 52.4621 278.432 52.262C278.636 52.0617 278.638 51.62 278.444 51.4329C278.264 51.2591 277.934 51.2101 277.723 51.329Z" fill="black"/>
<path d="M19.8917 68.4647C18.2627 68.8442 17.0323 69.9782 16.4724 71.6043C16.3124 72.0689 16.2934 72.2187 16.3017 73.0407C16.3101 73.8695 16.3321 74.0119 16.5085 74.4982C17.0235 75.8964 18.049 76.8923 19.4603 77.3656C20.011 77.5538 20.1141 77.5657 20.9784 77.5518C21.8016 77.5386 21.9591 77.5157 22.424 77.3452C22.711 77.2386 23.1276 77.0417 23.3595 76.9089C25.4258 75.6662 26.1879 73.0041 25.0889 70.8407C24.1508 68.9873 21.952 67.9831 19.8917 68.4647ZM21.7967 68.9097C23.6596 69.267 25.0973 70.9969 25.1165 72.899C25.1395 75.168 23.2651 77.0734 20.9739 77.1103C18.6759 77.1472 16.7706 75.3094 16.7476 73.0336C16.735 71.7904 17.3599 70.4826 18.3198 69.7469C19.3342 68.9628 20.5592 68.6646 21.7967 68.9097Z" fill="black"/>
<path d="M54.3321 68.3255C52.6615 68.6717 51.3311 70.0928 51.0536 71.8231C50.9569 72.4361 50.9578 72.5312 51.0669 73.141C51.5174 75.6205 53.9338 77.1173 56.39 76.4391C57.4984 76.1359 58.5188 75.2702 59.0635 74.1743C60.0519 72.188 59.1408 69.6071 57.1003 68.6547C56.1834 68.221 55.3111 68.1196 54.3321 68.3255ZM56.1135 68.7657C57.3446 69.0653 58.3761 69.9795 58.8135 71.1683C59.0039 71.6749 59.0561 72.768 58.9103 73.2799C58.4403 74.9657 56.9837 76.1238 55.3031 76.1508C53.1903 76.1848 51.4791 74.5544 51.4581 72.4756C51.4411 70.7909 52.5989 69.2639 54.2408 68.8026C54.7334 68.6656 55.6183 68.6446 56.1135 68.7657Z" fill="black"/>
<path d="M88.5397 68.2445C87.9856 68.4096 87.658 68.578 87.1883 68.9388C85.8267 69.9935 85.366 71.9238 86.1093 73.5085C86.488 74.3246 87.4225 75.1385 88.3173 75.4298C88.9368 75.6305 90.1649 75.6244 90.7254 75.4183C91.5525 75.1196 92.2604 74.5579 92.7334 73.8437C93.3955 72.8207 93.4837 71.3652 92.9506 70.2187C92.579 69.4229 91.7205 68.6622 90.8253 68.3368C90.2262 68.1154 89.1211 68.072 88.5397 68.2445ZM90.9607 68.8374C91.6984 69.1857 92.225 69.7004 92.5892 70.4351C92.8483 70.9542 92.8484 70.9677 92.857 71.8169L92.8656 72.6661L92.5834 73.255C91.8777 74.7067 90.3484 75.4583 88.7809 75.137C87.6258 74.8974 86.5173 73.8281 86.2451 72.691C86.1448 72.2713 86.1376 71.5648 86.2294 71.1421C86.4653 70.0444 87.4088 69.0372 88.5643 68.6382C88.7489 68.5808 89.1054 68.5479 89.6131 68.5533C90.3542 68.5618 90.4023 68.5746 90.9607 68.8374Z" fill="black"/>
<path d="M123.028 68.1045C122.446 68.2498 121.969 68.5224 121.5 68.9852C120.848 69.6208 120.526 70.3394 120.494 71.2436C120.462 72.1885 120.835 73.0522 121.562 73.7268C122.892 74.9624 124.847 74.9242 126.158 73.6393C127.496 72.3336 127.517 70.3153 126.207 69.0047C125.77 68.5632 125.218 68.2392 124.688 68.105C124.241 67.9899 123.48 67.9886 123.028 68.1045ZM125.064 68.6289C125.822 68.9633 126.308 69.4922 126.646 70.3361C126.808 70.7412 126.844 71.6511 126.711 72.0677C126.292 73.3993 125.237 74.2113 123.865 74.2401C122.672 74.2729 121.671 73.6639 121.153 72.6055C120.445 71.1424 121.065 69.3795 122.547 68.6694C123.325 68.29 124.272 68.2748 125.064 68.6289Z" fill="black"/>
<path d="M157.202 68.0512C156.579 68.2582 155.926 68.7919 155.596 69.3748C155.117 70.191 155.143 71.434 155.646 72.2616C155.834 72.5779 156.368 73.0857 156.713 73.284C157.52 73.7331 158.796 73.7126 159.594 73.2377C159.935 73.0284 160.383 72.5796 160.613 72.2158C161.126 71.3854 161.14 70.1214 160.638 69.2937C160.429 68.9573 159.902 68.4426 159.578 68.2644C158.922 67.8944 157.94 67.8083 157.202 68.0512ZM159.182 68.4338C159.74 68.6763 160.197 69.1241 160.47 69.6905C160.66 70.0883 160.688 70.217 160.693 70.7197C160.699 71.2224 160.672 71.3519 160.491 71.7557C160.223 72.3443 159.781 72.7931 159.194 73.0743C158.791 73.2642 158.661 73.2935 158.154 73.3016C157.646 73.3098 157.515 73.2847 157.109 73.1078C156.516 72.8456 156.066 72.4111 155.785 71.8313C155.596 71.4335 155.567 71.3049 155.562 70.8021C155.557 70.2994 155.583 70.1699 155.765 69.7661C156.1 69.0337 156.774 68.459 157.533 68.2565C157.971 68.1407 158.706 68.2173 159.182 68.4338Z" fill="black"/>
<path d="M191.779 67.8623C191.067 68.0775 190.483 68.5897 190.167 69.2878C190.019 69.6028 189.987 69.7731 189.992 70.2487C189.997 70.765 190.019 70.8733 190.222 71.271C190.494 71.8033 190.931 72.2108 191.475 72.4534C192.034 72.7027 192.864 72.6893 193.423 72.4221C193.956 72.169 194.391 71.7407 194.646 71.2066C194.834 70.8163 194.86 70.6936 194.862 70.1772C194.857 69.6473 194.835 69.5457 194.632 69.1481C194.212 68.3327 193.453 67.8353 192.56 67.7885C192.286 67.7794 191.964 67.8117 191.779 67.8623ZM193.313 68.2385C194.112 68.5857 194.579 69.2984 194.588 70.1748C194.592 70.5824 194.559 70.7596 194.418 71.0676C194.049 71.8685 193.333 72.3352 192.448 72.3495C192.037 72.3561 191.858 72.325 191.548 72.1873C190.576 71.7545 190.044 70.6759 190.315 69.6931C190.693 68.3689 192.072 67.7013 193.313 68.2385Z" fill="black"/>
<path d="M225.952 67.8157C225.536 67.9719 224.985 68.5379 224.846 68.9682C224.586 69.7469 224.766 70.539 225.327 71.0803C226.124 71.8489 227.372 71.8288 228.153 71.0349C228.554 70.6276 228.721 70.2037 228.715 69.6262C228.709 69.0488 228.534 68.6303 228.125 68.236C227.889 68.0156 227.654 67.8631 227.434 67.7919C227.014 67.656 226.363 67.6664 225.952 67.8157ZM227.499 68.0694C227.823 68.2273 228.155 68.5549 228.337 68.8849C228.526 69.2352 228.527 70.0505 228.332 70.4205C227.76 71.5169 226.301 71.7509 225.462 70.8879C225.088 70.5067 224.982 70.2502 224.977 69.6863C224.971 69.1225 225.071 68.8627 225.438 68.4695C225.648 68.2351 225.914 68.0677 226.228 67.9608C226.509 67.8611 227.202 67.9247 227.499 68.0694Z" fill="black"/>
<path d="M260.612 67.6119C260.249 67.7129 259.868 68.0112 259.672 68.354C259.517 68.6215 259.484 68.7647 259.488 69.1316C259.485 69.5189 259.514 69.6272 259.695 69.9164C259.827 70.1181 260.035 70.3186 260.242 70.4444C260.532 70.6096 260.649 70.6417 261.04 70.6354C261.431 70.6291 261.547 70.5933 261.834 70.4188C262.038 70.2864 262.242 70.0793 262.37 69.8734C262.539 69.5853 262.572 69.4693 262.568 69.0821C262.564 68.6948 262.529 68.5799 262.354 68.2973C261.985 67.7257 261.262 67.4384 260.612 67.6119ZM261.547 67.8415C262.27 68.1288 262.594 68.9457 262.272 69.6643C261.789 70.7388 260.232 70.7367 259.761 69.6571C259.557 69.1848 259.661 68.5648 260.007 68.1788C260.36 67.7926 261.037 67.6458 261.547 67.8415Z" fill="black"/>
<path d="M294.779 67.5859C294.103 67.9432 294.032 69.0315 294.667 69.4629C294.951 69.6622 295.514 69.6939 295.841 69.5324C296.545 69.1882 296.629 68.0861 295.98 67.6481C295.697 67.4556 295.093 67.4245 294.779 67.5859ZM295.844 67.7318C296.444 68.0755 296.427 69.0677 295.819 69.3968C295.151 69.7473 294.371 69.3114 294.364 68.5845C294.358 68.0071 294.738 67.6137 295.314 67.6044C295.499 67.6014 295.713 67.6524 295.844 67.7318Z" fill="black"/>
<path d="M3.26239 87.6208C2.17464 87.9304 1.45547 88.7301 1.26107 89.8611C1.11812 90.6516 1.43615 91.5706 2.05271 92.1586C2.66249 92.7535 3.59851 93.0442 4.39273 92.8819C5.61151 92.6381 6.43324 91.8028 6.64739 90.5899C6.79041 89.8062 6.47231 88.8805 5.86953 88.2991C5.48154 87.9248 5.1297 87.7334 4.56576 87.5998C4.08433 87.4852 3.73448 87.4909 3.26239 87.6208Z" fill="black"/>
<path d="M37.4271 87.3637C36.7436 87.6193 36.261 88.0687 35.959 88.7395C35.8382 89.0064 35.8127 89.1902 35.8179 89.7133C35.8236 90.2704 35.8525 90.4126 36.0136 90.743C36.2518 91.2351 36.7299 91.6963 37.233 91.9192C37.5707 92.07 37.715 92.0949 38.2775 92.0859C38.8401 92.0768 38.9838 92.0473 39.3184 91.8857C39.8168 91.6466 40.2854 91.1703 40.5136 90.6706C40.668 90.3352 40.694 90.1921 40.6884 89.635C40.6828 89.078 40.6539 88.9358 40.4927 88.6054C40.2545 88.1133 39.7695 87.6454 39.2733 87.4292C38.7496 87.1998 37.9397 87.1721 37.4271 87.3637Z" fill="black"/>
<path d="M71.9955 86.9915C71.4893 87.1423 71.2983 87.2541 70.9384 87.6268C70.1032 88.4827 70.1309 89.8615 70.997 90.7037C72.4104 92.0671 74.7877 91.0505 74.7679 89.0872C74.7534 87.6606 73.3499 86.596 71.9955 86.9915Z" fill="black"/>
<path d="M106.194 86.7203C105.702 86.8777 105.104 87.492 104.965 87.9835C104.733 88.789 104.904 89.4045 105.493 89.9658C105.791 90.2464 105.984 90.3724 106.259 90.4427C107.044 90.6611 107.66 90.5017 108.237 89.9217C108.549 89.6109 108.658 89.4461 108.737 89.1594C108.969 88.354 108.798 87.7384 108.209 87.1771C107.62 86.6227 106.967 86.4701 106.194 86.7203Z" fill="black"/>
<path d="M140.482 86.4342C140.127 86.569 139.597 87.1278 139.505 87.4758C139.313 88.1788 139.463 88.7675 139.955 89.2352C140.44 89.7098 141.038 89.8429 141.736 89.6346C142.105 89.5267 142.703 88.926 142.795 88.5712C142.987 87.8547 142.837 87.2728 142.345 86.8051C141.957 86.424 141.661 86.3133 141.099 86.3223C140.913 86.3321 140.633 86.3774 140.482 86.4342Z" fill="black"/>
<path d="M174.962 86.0837C174.572 86.2123 174.171 86.6128 174.038 87.0023C173.911 87.3916 173.913 87.6022 174.048 87.9737C174.308 88.6694 175.053 89.065 175.779 88.8971C176.429 88.7372 176.965 88.0831 176.958 87.4377C176.952 86.8603 176.459 86.2227 175.888 86.0688C175.482 85.9531 175.358 85.9551 174.962 86.0837Z" fill="black"/>
<path d="M209.222 85.7979C209.113 85.854 208.936 85.9792 208.834 86.0895C208.101 86.8895 208.676 88.1576 209.753 88.1403C210.844 88.1228 211.394 86.8366 210.645 86.0604C210.291 85.6992 209.68 85.5867 209.222 85.7979Z" fill="black"/>
<path d="M243.701 85.4407C243.571 85.4836 243.381 85.6429 243.266 85.7806C242.846 86.3174 243.101 87.1082 243.768 87.3081C244.663 87.5791 245.407 86.5004 244.837 85.7758C244.733 85.6483 244.594 85.5147 244.532 85.4817C244.311 85.3697 243.934 85.3486 243.701 85.4407Z" fill="black"/>
<path d="M278.03 85.1336C277.757 85.2602 277.622 85.4866 277.626 85.8331C277.628 86.1048 277.664 86.1994 277.823 86.3463C277.982 86.5 278.072 86.5326 278.353 86.528C278.634 86.5235 278.723 86.4881 278.879 86.3293C279.036 86.1705 279.069 86.0817 279.066 85.8031C279.063 85.5314 279.028 85.4301 278.883 85.2897C278.689 85.1026 278.269 85.0278 278.03 85.1336Z" fill="black"/>
<path d="M20.2584 101.351C19.7381 101.461 19.0615 101.717 18.5155 102.004C18.0105 102.27 17.7791 102.458 17.2222 103.024C16.6654 103.59 16.4825 103.824 16.2269 104.331C15.7023 105.372 15.6036 105.795 15.6161 107.024C15.6284 108.247 15.7356 108.667 16.2811 109.697C16.5469 110.196 16.7344 110.424 17.3026 110.979C17.8777 111.534 18.0989 111.7 18.616 111.95C19.671 112.47 20.0973 112.558 21.332 112.538C22.5668 112.518 22.9911 112.409 24.0353 111.863C24.5403 111.596 24.7717 111.416 25.3285 110.843C25.8923 110.277 26.0683 110.043 26.3239 109.536C26.8484 108.488 26.9471 108.065 26.9347 106.842C26.9224 105.62 26.8221 105.2 26.2696 104.169C26.0038 103.664 25.8301 103.449 25.2551 102.895C24.6801 102.347 24.445 102.167 23.9347 101.917C22.935 101.43 22.5086 101.328 21.3902 101.326C20.8619 101.321 20.3543 101.336 20.2584 101.351ZM22.4399 101.995C23.9111 102.298 25.2599 103.377 25.919 104.78C26.2345 105.44 26.364 106.036 26.3722 106.851C26.3805 107.667 26.263 108.266 25.9611 108.937C25.3237 110.367 24.0312 111.462 22.5052 111.853C21.903 112.006 20.7505 112.024 20.1454 111.891C18.612 111.549 17.2978 110.496 16.6317 109.087C16.3163 108.426 16.1868 107.831 16.1786 107.015C16.1671 105.881 16.4528 104.959 17.0886 104.059C18.2857 102.348 20.336 101.554 22.4399 101.995Z" fill="black"/>
<path d="M54.2551 101.436C52.5174 101.933 51.2194 103.163 50.6397 104.865C50.4664 105.37 50.4539 105.486 50.4638 106.464C50.4737 107.442 50.4886 107.558 50.672 108.058C50.9543 108.834 51.3723 109.466 51.9682 110.048C52.5709 110.623 53.2199 111.02 54.0115 111.279C54.5209 111.447 54.6377 111.459 55.6255 111.443C56.6133 111.427 56.7298 111.412 57.2356 111.227C58.0217 110.943 58.6624 110.525 59.2533 109.931C59.8373 109.33 60.2424 108.685 60.5089 107.899C60.6822 107.394 60.6948 107.278 60.6849 106.3C60.675 105.322 60.6601 105.206 60.4767 104.707C60.1944 103.93 59.7763 103.298 59.1804 102.716C58.5776 102.135 57.9219 101.744 57.1372 101.492C56.387 101.253 54.9939 101.228 54.2551 101.436ZM56.4962 101.883C57.3004 102.026 58.3075 102.56 58.8828 103.142C59.4445 103.724 59.9056 104.546 60.0989 105.344C60.2135 105.818 60.2038 106.899 60.0854 107.403C59.6901 109.02 58.3659 110.373 56.7512 110.814C56.2175 110.958 55.0307 110.977 54.4874 110.85C52.8575 110.462 51.5272 109.178 51.0925 107.575C50.9498 107.034 50.938 105.865 51.0698 105.333C51.6836 102.925 54.0355 101.433 56.4962 101.883Z" fill="black"/>
<path d="M89.2786 101.295C86.9763 101.59 85.2399 103.568 85.2631 105.864C85.2815 107.678 86.2713 109.225 87.8912 109.973C88.5874 110.288 89.158 110.408 89.9263 110.396C92.4987 110.354 94.5089 108.311 94.4832 105.763C94.4622 103.012 92.0399 100.938 89.2786 101.295ZM91.1098 101.911C92.1697 102.24 93.0762 103 93.5454 103.944C93.8745 104.598 93.9962 105.105 93.9963 105.785C94.0008 106.913 93.6057 107.877 92.8179 108.671C92.037 109.472 91.0738 109.888 89.9352 109.913C88.3507 109.952 86.8806 109.093 86.2012 107.717C85.8721 107.064 85.7577 106.603 85.7505 105.89C85.7154 103.778 87.3507 101.971 89.489 101.747C89.8728 101.706 90.745 101.794 91.1098 101.911Z" fill="black"/>
<path d="M123.377 101.317C121.214 101.746 119.76 103.876 120.166 106.037C120.573 108.225 122.7 109.665 124.919 109.242C127.261 108.797 128.726 106.47 128.106 104.183C127.558 102.181 125.459 100.903 123.377 101.317ZM125.104 101.772C126.336 102.112 127.313 103.055 127.688 104.265C127.83 104.731 127.846 105.614 127.714 106.14C127.404 107.354 126.42 108.375 125.175 108.756C124.703 108.899 123.811 108.92 123.282 108.793C122.037 108.494 120.984 107.478 120.649 106.253C120.421 105.408 120.534 104.407 120.951 103.605C121.368 102.79 122.287 102.055 123.183 101.803C123.683 101.659 124.636 101.644 125.104 101.772Z" fill="black"/>
<path d="M157.716 101.309C157.148 101.44 156.759 101.63 156.303 101.984C154.056 103.732 154.688 107.194 157.414 108.081C158.034 108.282 158.987 108.266 159.602 108.046C161.694 107.299 162.618 104.96 161.576 103.054C160.828 101.687 159.215 100.959 157.716 101.309ZM159.553 101.782C160.841 102.257 161.677 103.494 161.615 104.834C161.523 106.588 160.081 107.916 158.345 107.842C156.574 107.762 155.242 106.343 155.328 104.622C155.397 103.296 156.189 102.237 157.467 101.775C158.062 101.555 158.947 101.561 159.553 101.782Z" fill="black"/>
<path d="M192.089 101.293C191.508 101.445 191.112 101.669 190.691 102.077C189.502 103.23 189.465 105.059 190.609 106.223C191.379 107.005 192.411 107.315 193.437 107.06C194.046 106.908 194.388 106.719 194.836 106.297C195.611 105.544 195.916 104.568 195.687 103.545C195.55 102.916 195.361 102.565 194.904 102.104C194.446 101.643 193.991 101.398 193.379 101.279C192.822 101.173 192.548 101.17 192.089 101.293ZM193.871 101.767C194.443 102.023 194.9 102.464 195.181 103.037C195.384 103.448 195.405 103.55 195.411 104.134C195.417 104.718 195.398 104.821 195.203 105.238C194.934 105.82 194.486 106.276 193.906 106.557C193.489 106.761 193.387 106.783 192.797 106.792C192.207 106.802 192.104 106.783 191.683 106.593C191.097 106.33 190.64 105.889 190.36 105.316C190.157 104.905 190.135 104.803 190.129 104.219C190.123 103.635 190.143 103.533 190.338 103.115C190.68 102.376 191.347 101.808 192.106 101.605C192.592 101.475 193.382 101.551 193.871 101.767Z" fill="black"/>
<path d="M226.51 101.256C225.805 101.417 225.131 101.985 224.809 102.697C224.669 103.018 224.636 103.189 224.641 103.664C224.639 104.188 224.661 104.289 224.864 104.687C225.137 105.219 225.573 105.627 226.118 105.869C226.448 106.013 226.606 106.045 227.093 106.037C227.581 106.029 227.738 105.993 228.066 105.838C228.605 105.578 229.033 105.156 229.295 104.615C229.483 104.218 229.51 104.102 229.504 103.586C229.499 103.07 229.471 102.955 229.274 102.564C228.75 101.546 227.612 101.007 226.51 101.256ZM227.955 101.654C228.754 102.001 229.221 102.714 229.23 103.591C229.234 103.998 229.202 104.175 229.061 104.483C228.691 105.284 227.976 105.751 227.091 105.765C226.679 105.772 226.5 105.741 226.19 105.603C225.219 105.17 224.686 104.092 224.958 103.109C225.335 101.785 226.714 101.117 227.955 101.654Z" fill="black"/>
<path d="M260.869 101.241C260.315 101.426 259.9 101.773 259.658 102.245C259.51 102.533 259.477 102.683 259.482 103.104C259.486 103.546 259.515 103.661 259.696 103.97C260.08 104.644 260.619 104.954 261.387 104.942C262.169 104.93 262.721 104.588 263.078 103.896C263.226 103.615 263.259 103.458 263.254 103.044C263.25 102.602 263.221 102.487 263.04 102.177C262.816 101.78 262.574 101.56 262.146 101.349C261.843 101.205 261.15 101.141 260.869 101.241ZM262.101 101.567C262.7 101.857 263.035 102.381 263.042 103.047C263.051 104.005 262.352 104.716 261.385 104.731C260.424 104.747 259.704 104.052 259.694 103.101C259.682 101.858 260.991 101.021 262.101 101.567Z" fill="black"/>
<path d="M295.188 101.246C295.064 101.282 294.846 101.435 294.704 101.58C294.086 102.208 294.213 103.246 294.972 103.696C295.366 103.934 296.031 103.91 296.413 103.652C296.835 103.367 297.01 103.031 297.005 102.501C296.999 101.978 296.818 101.641 296.41 101.383C296.113 101.19 295.55 101.132 295.188 101.246ZM296.212 101.461C296.474 101.592 296.745 101.928 296.83 102.232C297.058 103.044 296.223 103.886 295.391 103.675C295.012 103.586 294.61 103.199 294.511 102.827C294.24 101.873 295.309 101.02 296.212 101.461Z" fill="black"/>
<path d="M3.78481 120.98C1.82669 121.385 0.644353 123.198 1.14301 125.018C1.38524 125.904 1.87195 126.542 2.60348 126.965C3.19692 127.302 3.66469 127.423 4.33009 127.413C5.00235 127.402 5.46065 127.265 6.05389 126.903C6.82437 126.428 7.31093 125.693 7.51356 124.698C7.61803 124.173 7.61734 124.105 7.5023 123.584C7.43068 123.286 7.29615 122.874 7.19819 122.685C6.83421 121.971 6.12154 121.378 5.30927 121.112C4.91688 120.982 4.10661 120.914 3.78481 120.98Z" fill="black"/>
<path d="M37.7104 120.822C36.8969 121.107 36.2372 121.688 35.8881 122.441C35.6867 122.879 35.6736 122.948 35.6811 123.688C35.6886 124.429 35.703 124.496 35.9132 124.928C36.2074 125.528 36.7548 126.056 37.3682 126.331C37.8093 126.528 37.878 126.54 38.6257 126.528C39.3734 126.516 39.4419 126.502 39.8789 126.291C40.4865 125.996 41.023 125.45 41.305 124.841C41.5064 124.403 41.5194 124.335 41.5119 123.594C41.5045 122.854 41.4901 122.786 41.2799 122.355C40.9856 121.755 40.4383 121.227 39.8249 120.951C39.4114 120.768 39.2739 120.743 38.6701 120.739C38.2378 120.732 37.8814 120.765 37.7104 120.822Z" fill="black"/>
<path d="M72.1493 120.54C71.3494 120.818 70.7986 121.309 70.4628 122.028C70.2681 122.446 70.2485 122.548 70.2544 123.132C70.2604 123.717 70.282 123.818 70.4851 124.229C70.7653 124.802 71.2226 125.243 71.8084 125.506C72.2289 125.696 72.332 125.715 72.9219 125.705C73.5118 125.696 73.6145 125.674 74.031 125.47C74.6113 125.189 75.0595 124.733 75.3281 124.151C75.5228 123.734 75.5424 123.632 75.5365 123.047C75.5306 122.463 75.509 122.362 75.3059 121.95C74.8574 121.027 73.9943 120.484 72.9718 120.459C72.6424 120.451 72.3134 120.483 72.1493 120.54Z" fill="black"/>
<path d="M106.554 120.28C106.048 120.424 105.523 120.799 105.233 121.232C105.003 121.582 104.79 122.224 104.794 122.577C104.797 122.93 105.023 123.566 105.26 123.908C105.768 124.62 106.739 125.026 107.575 124.856C108.122 124.745 108.525 124.535 108.885 124.169C109.476 123.575 109.701 122.763 109.494 121.978C109.273 121.112 108.614 120.457 107.755 120.253C107.259 120.139 107.047 120.143 106.554 120.28Z" fill="black"/>
<path d="M140.856 120.02C140.357 120.191 139.867 120.614 139.611 121.1C139.49 121.326 139.464 121.49 139.47 122.02C139.477 122.753 139.583 123.017 140.047 123.458C140.504 123.906 140.773 124.003 141.514 123.991C142.254 123.979 142.521 123.873 142.969 123.411C143.424 122.955 143.524 122.688 143.517 121.955C143.51 121.221 143.404 120.958 142.94 120.517C142.524 120.109 142.207 119.985 141.576 119.975C141.274 119.966 140.952 119.985 140.856 120.02Z" fill="black"/>
<path d="M175.09 119.823C173.656 120.492 173.662 122.408 175.088 123.051C176.232 123.569 177.582 122.671 177.576 121.407C177.566 120.456 176.735 119.654 175.775 119.67C175.541 119.673 175.281 119.732 175.09 119.823Z" fill="black"/>
<path d="M209.563 119.507C209.03 119.713 208.577 120.359 208.582 120.916C208.585 121.228 208.789 121.68 209.052 121.934C209.309 122.188 209.777 122.384 210.106 122.379C210.436 122.374 210.9 122.162 211.151 121.9C211.409 121.638 211.604 121.18 211.601 120.867C211.595 120.296 211.129 119.672 210.564 119.484C210.2 119.368 209.925 119.372 209.563 119.507Z" fill="black"/>
<path d="M244.275 119.146C244.241 119.16 244.125 119.189 244.022 119.211C243.789 119.269 243.449 119.56 243.308 119.827C243.187 120.074 243.179 120.611 243.298 120.833C243.535 121.271 243.929 121.509 244.402 121.502C245.081 121.491 245.577 120.987 245.57 120.314C245.564 119.716 245.162 119.254 244.55 119.162C244.44 119.143 244.316 119.139 244.275 119.146Z" fill="black"/>
<path d="M278.222 119.042C277.642 119.398 277.679 120.267 278.279 120.57C278.699 120.774 279.212 120.629 279.448 120.225C279.921 119.443 278.999 118.554 278.222 119.042Z" fill="black"/>
<path d="M20.8861 134.26C18.3776 134.518 16.145 136.28 15.2571 138.706C14.7429 140.101 14.7613 141.921 15.3035 143.299C16.2473 145.716 18.48 147.365 21.0548 147.561C22.3319 147.656 23.5096 147.42 24.6631 146.831C26.7587 145.764 28.1513 143.717 28.3408 141.418C28.5976 138.322 26.6614 135.459 23.6811 134.521C22.8002 134.25 21.8799 134.163 20.8861 134.26ZM23.1035 135.067C24.83 135.508 26.2966 136.708 27.0744 138.312C27.5158 139.216 27.6021 139.608 27.6207 140.77C27.6316 141.85 27.5803 142.204 27.2794 142.984C27.0188 143.667 26.6068 144.319 26.0911 144.885C25.5211 145.506 24.9559 145.929 24.198 146.288C23.2694 146.738 22.8929 146.818 21.6787 146.838C20.4714 146.857 20.0865 146.789 19.1561 146.376C17.7984 145.772 16.8008 144.817 16.163 143.489C15.7146 142.572 15.6354 142.199 15.6233 140.997C15.6111 139.794 15.6828 139.42 16.1125 138.489C16.5622 137.503 17.3077 136.594 18.1593 136.003C18.8134 135.544 19.8519 135.12 20.6326 134.978C21.0573 134.903 22.6908 134.965 23.1035 135.067Z" fill="black"/>
<path d="M54.6983 134.424C53.4116 134.736 52.5586 135.192 51.6617 136.062C50.8532 136.85 50.354 137.687 50.0221 138.793C49.863 139.339 49.8439 139.489 49.8536 140.447C49.87 141.391 49.8854 141.56 50.0555 142.094C50.7285 144.19 52.301 145.68 54.4334 146.23C54.8874 146.345 55.1552 146.368 56.0127 146.354C56.9319 146.339 57.1032 146.316 57.6434 146.144C58.7308 145.794 59.5422 145.298 60.3027 144.512C61.0428 143.746 61.4946 142.964 61.8132 141.905C61.9724 141.366 61.9913 141.196 61.9821 140.286C61.9735 139.436 61.9434 139.172 61.8153 138.726C61.2041 136.629 59.638 135.091 57.5258 134.507C56.7621 134.295 55.3895 134.256 54.6983 134.424ZM57.3053 135.095C57.5874 135.172 58.0971 135.368 58.4419 135.539C58.9452 135.782 59.1871 135.962 59.7207 136.483C60.261 136.998 60.4487 137.232 60.7144 137.731C61.1971 138.647 61.354 139.236 61.3643 140.262C61.3746 141.281 61.2365 141.867 60.7658 142.812C60.5102 143.319 60.3274 143.56 59.7976 144.092C59.2747 144.63 59.0365 144.817 58.5315 145.084C57.5965 145.574 57.008 145.726 55.9722 145.743C54.9363 145.76 54.345 145.627 53.4004 145.166C52.8901 144.916 52.6482 144.737 52.1146 144.215C51.5743 143.701 51.3867 143.466 51.1278 142.974C50.6802 142.132 50.5093 141.516 50.4658 140.607C50.3947 138.997 50.9502 137.623 52.1326 136.49C52.9411 135.702 53.9512 135.183 55.0265 134.996C55.6087 134.898 56.7138 134.948 57.3053 135.095Z" fill="black"/>
<path d="M89.1886 134.481C88.0521 134.716 87.1378 135.22 86.2891 136.097C85.7458 136.656 85.6174 136.841 85.3284 137.444C84.885 138.368 84.76 138.907 84.7699 139.885C84.78 140.877 84.9156 141.405 85.3846 142.321C85.6996 142.942 85.8248 143.109 86.4068 143.671C86.9888 144.232 87.1615 144.352 87.7957 144.647C88.7332 145.087 89.2696 145.208 90.2711 145.192C91.2658 145.176 91.7996 145.038 92.7347 144.568C93.3696 144.252 93.5194 144.141 94.0966 143.547C94.6671 142.967 94.7957 142.795 95.0981 142.165C95.5483 141.234 95.6733 140.702 95.6633 139.71C95.6533 138.718 95.5176 138.191 95.0486 137.274C94.7336 136.654 94.6084 136.486 94.0264 135.925C93.4444 135.363 93.2717 135.244 92.6375 134.948C92.2377 134.765 91.7143 134.569 91.4667 134.512C90.7998 134.366 89.8117 134.355 89.1886 134.481ZM91.7411 135.187C93.1522 135.64 94.3438 136.783 94.8312 138.168C95.0645 138.85 95.1578 139.936 95.0276 140.624C94.5655 143.105 92.3118 144.812 89.7508 144.623C87.945 144.489 86.2856 143.224 85.6371 141.509C84.7208 139.098 85.9482 136.313 88.3465 135.337C89.105 135.032 89.331 134.995 90.3053 134.999C91.0326 135.001 91.2525 135.032 91.7411 135.187Z" fill="black"/>
<path d="M123.248 134.646C121.578 135.108 120.248 136.475 119.839 138.139C119.206 140.684 120.803 143.281 123.369 143.885C125.934 144.496 128.566 142.898 129.192 140.353C129.825 137.809 128.228 135.212 125.662 134.608C124.961 134.442 123.932 134.459 123.248 134.646ZM125.778 135.143C127.065 135.523 128.104 136.518 128.604 137.835C128.766 138.268 128.795 138.43 128.803 139.177C128.811 139.925 128.785 140.088 128.631 140.526C128.391 141.216 128.081 141.71 127.592 142.214C127.096 142.711 126.598 143.031 125.915 143.287C125.477 143.45 125.306 143.473 124.558 143.485C123.797 143.504 123.646 143.487 123.198 143.331C122.503 143.097 122.006 142.793 121.5 142.312C120.697 141.536 120.29 140.653 120.217 139.519C120.086 137.49 121.453 135.627 123.486 135.084C124.04 134.939 125.179 134.962 125.778 135.143Z" fill="black"/>
<path d="M157.984 134.632C157.245 134.8 156.46 135.213 155.91 135.725C155.522 136.071 155.077 136.792 154.85 137.4C154.683 137.858 154.664 138.001 154.671 138.762C154.679 139.523 154.701 139.665 154.877 140.117C155.363 141.36 156.208 142.175 157.482 142.63C157.95 142.792 158.081 142.811 158.856 142.798C159.631 142.786 159.761 142.763 160.226 142.586C161.49 142.09 162.319 141.248 162.78 139.99C162.946 139.532 162.966 139.389 162.958 138.628C162.95 137.861 162.928 137.732 162.752 137.273C162.097 135.612 160.688 134.615 158.944 134.575C158.567 134.568 158.135 134.595 157.984 134.632ZM159.808 135.126C161.025 135.432 162.037 136.415 162.406 137.645C162.569 138.173 162.578 139.09 162.433 139.622C162.075 140.878 161.111 141.865 159.859 142.245C159.626 142.317 159.222 142.364 158.852 142.37C157.795 142.387 156.941 142.061 156.207 141.346C155.465 140.638 155.114 139.801 155.103 138.755C155.1 138.388 155.137 137.986 155.203 137.754C155.759 135.768 157.785 134.608 159.808 135.126Z" fill="black"/>
<path d="M192.358 134.718C191.79 134.856 191.401 135.046 190.945 135.4C189.005 136.905 189.158 139.811 191.236 141.123C192.369 141.831 193.933 141.806 195.05 141.061C196.1 140.358 196.652 139.323 196.633 138.087C196.616 137.102 196.299 136.333 195.62 135.657C194.795 134.842 193.46 134.455 192.358 134.718ZM194.195 135.198C195.483 135.673 196.319 136.91 196.257 138.249C196.165 140.004 194.724 141.332 192.987 141.258C191.216 141.177 189.885 139.758 189.97 138.038C190.039 136.712 190.831 135.653 192.109 135.191C192.704 134.97 193.589 134.977 194.195 135.198Z" fill="black"/>
<path d="M226.486 134.883C225.864 135.09 225.211 135.623 224.88 136.206C224.402 137.022 224.428 138.265 224.93 139.093C225.119 139.409 225.652 139.917 225.997 140.116C226.804 140.565 228.08 140.544 228.878 140.069C229.219 139.86 229.667 139.411 229.897 139.047C230.41 138.217 230.425 136.953 229.922 136.125C229.713 135.789 229.187 135.274 228.862 135.096C228.207 134.726 227.225 134.64 226.486 134.883ZM228.466 135.265C229.024 135.508 229.482 135.956 229.755 136.522C229.944 136.92 229.973 137.048 229.978 137.551C229.983 138.054 229.957 138.183 229.776 138.587C229.507 139.176 229.066 139.625 228.479 139.906C228.076 140.096 227.946 140.125 227.438 140.133C226.93 140.141 226.8 140.116 226.407 139.939C225.752 139.644 225.42 139.337 225.112 138.737C224.874 138.265 224.852 138.184 224.847 137.64C224.842 137.131 224.868 137.001 225.049 136.604C225.163 136.351 225.366 136.029 225.501 135.877C225.78 135.56 226.428 135.183 226.852 135.087C227.331 134.978 227.99 135.049 228.466 135.265Z" fill="black"/>
<path d="M260.936 134.947C259.357 135.557 258.945 137.588 260.191 138.689C260.669 139.123 261.041 139.253 261.734 139.242C262.186 139.235 262.392 139.198 262.638 139.078C263.095 138.867 263.544 138.425 263.758 137.966C263.92 137.637 263.946 137.494 263.941 137.005C263.936 136.516 263.907 136.374 263.739 136.05C263.515 135.599 263.051 135.165 262.596 134.975C262.121 134.779 261.407 134.763 260.936 134.947ZM262.572 135.267C263.771 135.839 264.074 137.309 263.207 138.355C263.105 138.473 262.839 138.674 262.607 138.786C261.611 139.298 260.454 138.93 259.943 137.939C259.538 137.164 259.673 136.306 260.291 135.671C260.705 135.257 261.088 135.094 261.698 135.078C262.069 135.065 262.22 135.096 262.572 135.267Z" fill="black"/>
<path d="M295.57 134.961C294.167 135.351 293.987 137.276 295.291 137.921C296.221 138.375 297.375 137.82 297.585 136.804C297.827 135.632 296.739 134.637 295.57 134.961ZM296.436 135.138C297.034 135.305 297.522 136.044 297.432 136.643C297.303 137.481 296.486 138.058 295.702 137.867C294.601 137.593 294.218 136.321 294.992 135.528C295.413 135.106 295.872 134.984 296.436 135.138Z" fill="black"/>
<path d="M4.15693 154.403C3.30076 154.546 2.52266 154.946 1.93183 155.547C1.19839 156.292 0.830168 157.195 0.840536 158.221C0.850904 159.247 1.23726 160.137 1.98553 160.859C2.7338 161.581 3.64307 161.94 4.6789 161.923C5.71473 161.907 6.61645 161.518 7.34989 160.773C8.08333 160.027 8.45155 159.124 8.44119 158.099C8.42423 156.421 7.29818 154.978 5.65381 154.522C5.26164 154.413 4.48572 154.35 4.15693 154.403Z" fill="black"/>
<path d="M38.4594 154.198C38.0689 154.252 37.406 154.514 37.0108 154.779C36.227 155.294 35.7137 156.098 35.5249 157.106C35.4272 157.617 35.4281 157.712 35.5362 158.22C36.0263 160.556 38.4187 161.707 40.5484 160.626C41.4768 160.163 42.1465 159.228 42.3548 158.111C42.4525 157.599 42.4516 157.504 42.3435 156.997C42.0695 155.676 41.2159 154.718 39.9839 154.337C39.571 154.208 38.8774 154.144 38.4594 154.198Z" fill="black"/>
<path d="M72.7277 154.008C71.3309 154.281 70.36 155.296 70.141 156.713C69.9416 158.027 70.8277 159.481 72.1015 159.936C73.1757 160.319 74.2856 160.159 75.1501 159.486C76.6001 158.362 76.764 156.253 75.5018 154.907C74.8567 154.218 73.6452 153.823 72.7277 154.008Z" fill="black"/>
<path d="M107.085 153.802C105.941 153.977 104.95 154.991 104.803 156.142C104.561 157.987 106.12 159.491 107.977 159.203C109.141 159.028 110.126 158.027 110.272 156.869C110.412 155.8 109.949 154.775 109.072 154.218C108.464 153.834 107.811 153.695 107.085 153.802Z" fill="black"/>
<path d="M141.415 153.59C140.114 153.821 139.234 155.072 139.453 156.373C139.723 157.965 141.509 158.834 142.963 158.07C144.689 157.172 144.671 154.645 142.926 153.803C142.637 153.658 142.472 153.62 141.915 153.548C141.84 153.535 141.614 153.559 141.415 153.59Z" fill="black"/>
<path d="M175.498 153.436C174.999 153.607 174.509 154.029 174.254 154.516C174.132 154.742 174.107 154.906 174.112 155.435C174.119 156.169 174.225 156.432 174.689 156.873C175.147 157.321 175.415 157.419 176.156 157.407C176.897 157.395 177.163 157.289 177.611 156.826C178.067 156.371 178.167 156.104 178.159 155.37C178.152 154.637 178.046 154.373 177.582 153.932C177.166 153.525 176.85 153.401 176.218 153.39C175.916 153.382 175.594 153.4 175.498 153.436Z" fill="black"/>
<path d="M209.767 153.266C209.411 153.4 208.882 153.959 208.789 154.307C208.697 154.648 208.701 155.11 208.801 155.455C208.901 155.807 209.51 156.388 209.882 156.484C210.583 156.67 211.165 156.518 211.654 156.028C212.136 155.531 212.274 154.958 212.068 154.248C211.969 153.896 211.359 153.315 210.988 153.219C210.63 153.123 210.095 153.145 209.767 153.266Z" fill="black"/>
<path d="M244.117 153.06C243.81 153.221 243.437 153.682 243.385 153.962C243.275 154.595 243.493 155.122 244.005 155.481C244.198 155.607 244.322 155.632 244.747 155.625C245.323 155.616 245.548 155.503 245.894 155.049C246.056 154.829 246.076 154.741 246.071 154.279C246.067 153.817 246.045 153.729 245.878 153.514C245.552 153.105 245.29 152.973 244.789 152.954C244.473 152.945 244.274 152.976 244.117 153.06Z" fill="black"/>
<path d="M278.489 152.874C277.602 153.425 278 154.785 279.043 154.768C279.626 154.759 280.067 154.31 280.062 153.732C280.056 153.155 279.605 152.72 279.022 152.73C278.837 152.733 278.625 152.791 278.489 152.874Z" fill="black"/>
<path d="M20.9996 167.212C18.3822 167.56 16.0664 169.235 14.931 171.61C14.3262 172.87 14.0603 174.397 14.2106 175.685C14.5477 178.493 16.2244 180.789 18.7813 181.924C19.9529 182.449 21.5265 182.695 22.7461 182.533C26.5764 182.043 29.3269 179.247 29.7206 175.443C29.8525 174.231 29.5624 172.68 29.0019 171.534C27.8037 169.066 25.4478 167.446 22.6733 167.178C21.9728 167.115 21.719 167.119 20.9996 167.212ZM23.6092 168.142C26.0919 168.727 28.0249 170.585 28.7223 173.06C28.9715 173.953 29.0002 175.441 28.783 176.348C28.164 178.913 26.2081 180.901 23.6353 181.581C22.7321 181.82 21.2296 181.83 20.3148 181.6C17.7768 180.975 15.8297 179.07 15.1732 176.567C14.9375 175.653 14.9363 174.179 15.174 173.258C15.8738 170.542 18.0968 168.509 20.9048 168.022C21.5761 167.909 22.8665 167.963 23.6092 168.142Z" fill="black"/>
<path d="M55.0937 167.438C50.8131 168.173 48.1886 172.571 49.595 176.632C50.8456 180.213 54.8376 182.146 58.4685 180.933C61.6207 179.876 63.6674 176.697 63.2577 173.497C63.0117 171.558 62.1174 169.969 60.6169 168.811C59.0472 167.599 57.0594 167.101 55.0937 167.438ZM57.8394 168.244C60.0477 168.833 61.6897 170.417 62.3498 172.594C62.5838 173.345 62.6308 174.601 62.4609 175.44C61.8733 178.398 59.3356 180.518 56.3242 180.566C52.8394 180.622 49.9849 177.869 49.95 174.418C49.9202 171.469 51.973 168.895 54.8958 168.216C55.6829 168.027 57.0964 168.045 57.8394 168.244Z" fill="black"/>
<path d="M89.4823 167.606C87.1747 168.051 85.2771 169.692 84.5853 171.843C84.3059 172.71 84.2163 173.35 84.273 174.206C84.3709 175.753 85.0301 177.163 86.1595 178.252C88.3073 180.324 91.6444 180.589 94.1314 178.885C95.7735 177.765 96.7772 175.927 96.8531 173.935C96.9177 172.175 96.2422 170.514 94.9743 169.291C93.7826 168.142 92.3635 167.566 90.7029 167.546C90.2295 167.54 89.6808 167.562 89.4823 167.606ZM91.2036 168.21C92.316 168.294 93.5083 168.832 94.4223 169.66C96.1949 171.262 96.7097 173.999 95.6476 176.163C93.9736 179.567 89.5089 180.42 86.6976 177.87C84.9457 176.281 84.4183 173.646 85.4255 171.476C86.2582 169.696 87.9607 168.439 89.8658 168.211C90.3455 168.156 90.4347 168.155 91.2036 168.21Z" fill="black"/>
<path d="M123.672 167.824C122.55 168.1 121.711 168.583 120.903 169.397C119.871 170.454 119.367 171.59 119.32 173.031C119.255 174.71 119.852 176.134 121.078 177.263C122.242 178.331 123.605 178.798 125.223 178.691C126.642 178.6 127.79 178.072 128.815 177.03C129.487 176.339 129.859 175.742 130.172 174.82C130.385 174.198 130.391 174.137 130.374 173.125C130.364 172.113 130.356 172.045 130.137 171.43C129.813 170.532 129.43 169.947 128.737 169.272C128.037 168.597 127.429 168.233 126.521 167.948C125.95 167.767 125.757 167.743 124.975 167.735C124.371 167.725 123.946 167.759 123.672 167.824ZM125.908 168.373C127.42 168.681 128.825 169.827 129.457 171.271C129.822 172.115 129.937 173.288 129.74 174.222C129.426 175.715 128.26 177.12 126.839 177.727C124.605 178.68 122.121 177.973 120.715 175.984C119.831 174.735 119.627 172.876 120.223 171.426C120.699 170.25 121.683 169.235 122.858 168.693C123.677 168.32 124.959 168.184 125.908 168.373Z" fill="black"/>
<path d="M157.89 168.062C156.221 168.524 154.89 169.891 154.481 171.555C153.848 174.1 155.446 176.697 158.011 177.301C158.651 177.454 159.584 177.452 160.268 177.298C161.603 176.998 162.855 176.007 163.46 174.767C163.83 174 163.968 173.393 163.959 172.544C163.938 170.397 162.423 168.526 160.305 168.023C159.603 167.858 158.574 167.875 157.89 168.062ZM160.475 168.585C161.811 169.025 162.85 170.048 163.282 171.339C163.409 171.717 163.439 171.968 163.446 172.627C163.453 173.334 163.427 173.504 163.274 173.941C163.034 174.631 162.723 175.126 162.234 175.629C161.738 176.127 161.248 176.447 160.557 176.703C160.12 176.866 159.949 176.896 159.235 176.907C158.57 176.918 158.316 176.895 157.93 176.779C155.391 176.025 154.135 173.232 155.263 170.856C155.814 169.706 156.93 168.798 158.169 168.499C158.826 168.339 159.856 168.377 160.475 168.585Z" fill="black"/>
<path d="M192.662 168.149C190.498 168.578 189.045 170.707 189.451 172.868C189.857 175.056 191.985 176.496 194.204 176.074C196.545 175.628 198.011 173.301 197.391 171.015C196.842 169.012 194.744 167.735 192.662 168.149ZM194.389 168.603C195.62 168.944 196.597 169.886 196.973 171.096C197.115 171.563 197.131 172.446 196.999 172.971C196.689 174.185 195.704 175.207 194.459 175.587C193.987 175.731 193.096 175.752 192.566 175.624C191.321 175.325 190.268 174.309 189.933 173.085C189.705 172.239 189.819 171.238 190.236 170.437C190.653 169.621 191.572 168.886 192.468 168.634C192.967 168.49 193.921 168.475 194.389 168.603Z" fill="black"/>
<path d="M226.941 168.352C225.292 168.772 224.163 170.482 224.454 172.102C224.585 172.799 224.879 173.372 225.378 173.867C226.736 175.231 228.849 175.204 230.166 173.804C230.831 173.107 231.139 172.293 231.088 171.384C231.038 170.508 230.751 169.874 230.12 169.238C229.267 168.382 228.098 168.055 226.941 168.352ZM228.55 168.707C230.312 169.208 231.209 171.123 230.457 172.759C229.779 174.245 228.016 174.905 226.52 174.243C225.438 173.757 224.797 172.782 224.799 171.6C224.794 170.398 225.402 169.43 226.473 168.91C227.102 168.614 227.938 168.526 228.55 168.707Z" fill="black"/>
<path d="M261.262 168.568C260.762 168.739 260.469 168.927 260.13 169.3C259.445 170.058 259.283 171.039 259.678 172.045C259.783 172.329 259.943 172.55 260.248 172.844C261.835 174.375 264.459 173.368 264.643 171.163C264.796 169.381 262.992 167.997 261.262 168.568ZM262.76 168.829C263.152 168.945 263.29 169.031 263.657 169.379C264.018 169.733 264.108 169.868 264.236 170.253C264.321 170.51 264.386 170.828 264.387 170.971C264.388 171.113 264.33 171.433 264.25 171.693C264.131 172.082 264.043 172.219 263.69 172.585C263.33 172.944 263.193 173.035 262.804 173.163C262.544 173.249 262.222 173.315 262.078 173.318C261.934 173.32 261.611 173.264 261.349 173.187C260.957 173.071 260.819 172.985 260.452 172.637C260.092 172.283 260.001 172.149 259.874 171.763C259.789 171.506 259.724 171.188 259.722 171.046C259.721 170.903 259.779 170.583 259.859 170.323C259.979 169.934 260.066 169.797 260.42 169.431C260.766 169.079 260.923 168.974 261.285 168.853C261.853 168.667 262.182 168.662 262.76 168.829Z" fill="black"/>
<path d="M295.657 168.749C295.24 168.905 294.751 169.416 294.612 169.839C294.106 171.356 295.505 172.706 297.023 172.165C297.235 172.094 297.48 171.927 297.67 171.726C298.838 170.546 297.968 168.576 296.308 168.63C296.116 168.633 295.821 168.692 295.657 168.749ZM297.19 169.044C297.97 169.479 298.235 170.569 297.742 171.324C297.228 172.094 296.222 172.314 295.448 171.817C294.336 171.114 294.532 169.412 295.782 168.923C296.158 168.782 296.818 168.832 297.19 169.044Z" fill="black"/>
<path d="M4.32358 187.857C3.40581 188.014 2.51863 188.484 1.87354 189.146C1.03158 190.016 0.636811 191.008 0.648827 192.196C0.660843 193.385 1.07553 194.364 1.94165 195.206C3.35526 196.59 5.54628 196.826 7.26472 195.786C7.78291 195.465 8.42813 194.816 8.74512 194.275C9.54098 192.916 9.52361 191.198 8.69349 189.845C8.37272 189.334 7.72138 188.699 7.17623 188.389C6.36882 187.926 5.1934 187.707 4.32358 187.857Z" fill="black"/>
<path d="M38.4212 187.757C36.6552 188.159 35.2865 189.859 35.3045 191.639C35.3226 193.433 36.7252 195.082 38.5331 195.426C39.4267 195.595 40.2282 195.474 41.102 195.039C42.3648 194.4 43.276 192.911 43.2618 191.511C43.252 190.54 42.7817 189.488 42.0403 188.772C41.0565 187.823 39.7286 187.451 38.4212 187.757Z" fill="black"/>
<path d="M72.6763 187.607C71.1096 188.054 69.9991 189.505 70.015 191.081C70.0344 192.997 71.6834 194.588 73.6178 194.557C75.5523 194.526 77.1686 192.882 77.1492 190.967C77.1296 189.031 75.467 187.447 73.5122 187.499C73.2515 187.503 72.8678 187.557 72.6763 187.607Z" fill="black"/>
<path d="M107.027 187.456C105.666 187.845 104.711 189.104 104.725 190.469C104.741 191.42 105.023 192.088 105.674 192.716C106.311 193.331 107.014 193.612 107.913 193.598C108.811 193.583 109.508 193.28 110.133 192.645C111.532 191.223 111.282 188.903 109.618 187.842C108.879 187.372 107.855 187.219 107.027 187.456Z" fill="black"/>
<path d="M141.727 187.218C140.583 187.392 139.592 188.407 139.446 189.558C139.204 191.403 140.763 192.907 142.619 192.619C143.784 192.444 144.768 191.443 144.914 190.285C145.054 189.216 144.591 188.191 143.714 187.634C143.107 187.25 142.453 187.111 141.727 187.218Z" fill="black"/>
<path d="M175.839 187.111C175.332 187.255 174.808 187.63 174.517 188.063C174.288 188.413 174.075 189.055 174.078 189.409C174.082 189.762 174.308 190.397 174.544 190.74C175.052 191.452 176.024 191.857 176.859 191.688C177.407 191.577 177.81 191.367 178.17 191.001C178.76 190.407 178.986 189.595 178.779 188.81C178.557 187.944 177.899 187.288 177.039 187.085C176.544 186.97 176.331 186.974 175.839 187.111Z" fill="black"/>
<path d="M210.073 186.995C209.574 187.173 209.031 187.746 208.885 188.251C208.667 189.022 208.831 189.631 209.406 190.2C209.718 190.507 209.884 190.613 210.173 190.69C210.984 190.915 211.607 190.742 212.177 190.155C212.463 189.858 212.591 189.666 212.664 189.393C212.889 188.615 212.732 188.006 212.15 187.438C211.838 187.13 211.672 187.024 211.383 186.947C210.895 186.812 210.538 186.825 210.073 186.995Z" fill="black"/>
<path d="M244.411 186.844C243.407 187.316 243.187 188.678 243.998 189.419C245.016 190.347 246.669 189.614 246.655 188.242C246.651 187.841 246.517 187.503 246.246 187.216C245.913 186.861 245.541 186.697 245.061 186.705C244.842 186.708 244.568 186.767 244.411 186.844Z" fill="black"/>
<path d="M279.261 186.529C279.227 186.543 279.111 186.572 279.008 186.594C278.775 186.652 278.435 186.943 278.294 187.21C278.173 187.457 278.164 187.994 278.283 188.216C278.521 188.654 278.914 188.892 279.388 188.884C280.067 188.873 280.563 188.37 280.556 187.697C280.55 187.099 280.147 186.637 279.536 186.545C279.426 186.526 279.302 186.521 279.261 186.529Z" fill="black"/>
<path d="M21.1886 200.162C17.3721 200.665 14.2532 203.658 13.5985 207.446C13.4559 208.263 13.4779 209.765 13.6368 210.55C14.3659 214.126 17.1719 216.833 20.8008 217.461C21.5981 217.597 23.1141 217.58 23.9358 217.417C27.3116 216.758 30.0437 214.187 30.8681 210.905C32.1279 205.891 28.7569 200.917 23.59 200.178C22.9648 200.093 21.7984 200.085 21.1886 200.162ZM24.2386 201.214C26.9691 201.884 29.1793 204.016 29.9545 206.721C30.1253 207.33 30.1406 207.486 30.153 208.709C30.1654 209.938 30.1531 210.081 29.988 210.716C29.6577 211.978 28.7543 213.555 27.8777 214.391C26.9467 215.283 25.5825 216.066 24.4193 216.377C21.6481 217.121 18.773 216.399 16.7638 214.468C14.3595 212.142 13.7124 208.531 15.1639 205.518C15.5267 204.758 16.2302 203.762 16.733 203.278C17.8066 202.248 19.1646 201.52 20.6157 201.184C21.5398 200.972 23.2963 200.985 24.2386 201.214Z" fill="black"/>
<path d="M55.8388 200.421C52.4733 200.747 49.6235 203.211 48.8469 206.471C48.6626 207.242 48.6249 207.589 48.6339 208.479C48.6623 210.606 49.5469 212.596 51.119 214.052C52.6635 215.488 54.5576 216.211 56.6841 216.177C61.1224 216.106 64.6198 212.55 64.5754 208.155C64.5541 206.049 63.7738 204.193 62.2836 202.702C60.9874 201.398 59.1607 200.544 57.4511 200.422C56.6203 200.361 56.4351 200.364 55.8388 200.421ZM58.339 201.386C60.9387 202.003 63.0113 204.097 63.6003 206.71C63.7801 207.529 63.7929 208.8 63.6298 209.631C63.0675 212.378 60.9079 214.574 58.1493 215.202C57.3142 215.386 56.0314 215.406 55.1996 215.25C52.8761 214.798 50.9116 213.212 49.9979 211.06C49.3091 209.433 49.275 207.416 49.917 205.775C50.6261 203.976 52.2017 202.382 53.9581 201.701C55.3112 201.177 56.943 201.062 58.339 201.386Z" fill="black"/>
<path d="M89.3926 200.826C86.0658 201.572 83.7351 204.484 83.7692 207.86C83.8087 211.773 87.0303 214.867 90.9952 214.797C94.9395 214.727 98.077 211.53 98.0374 207.617C98.0032 204.234 95.6077 201.412 92.2394 200.773C91.442 200.623 90.1935 200.643 89.3926 200.826ZM92.522 201.584C94.675 202.127 96.4625 203.851 97.0671 205.968C97.2733 206.685 97.3464 207.805 97.2376 208.588C96.9123 211.019 95.0878 213.1 92.6458 213.833C92.1739 213.976 91.9408 214 90.9668 214.016C90.1024 214.03 89.7317 214.008 89.4016 213.925C87.0971 213.331 85.3513 211.66 84.7043 209.421C84.5479 208.874 84.4783 207.421 84.5814 206.76C84.98 204.117 87.1944 201.907 89.8727 201.484C90.6604 201.356 91.7929 201.399 92.522 201.584Z" fill="black"/>
<path d="M124.166 201.014C121.612 201.517 119.77 203.232 119.068 205.757C118.876 206.453 118.87 207.935 119.063 208.652C119.584 210.627 120.931 212.209 122.701 212.928C123.7 213.326 124.174 213.414 125.299 213.389C126.205 213.368 126.397 213.344 126.916 213.18C128.12 212.8 128.897 212.332 129.699 211.518C130.5 210.703 130.952 209.921 131.303 208.72C131.456 208.201 131.475 208.011 131.472 207.114C131.471 206.251 131.441 206.013 131.306 205.56C130.596 203.221 128.982 201.664 126.664 201.103C126.072 200.956 124.693 200.911 124.166 201.014ZM126.76 201.795C128.81 202.373 130.357 204.033 130.748 206.086C131.161 208.213 130.237 210.49 128.452 211.735C126.776 212.91 124.542 213.096 122.715 212.214C120.598 211.195 119.389 209.061 119.585 206.693C119.806 204.087 121.945 201.913 124.563 201.633C125.276 201.56 126.155 201.621 126.76 201.795Z" fill="black"/>
<path d="M158.473 201.312C157.337 201.548 156.422 202.052 155.574 202.928C155.03 203.487 154.902 203.673 154.613 204.275C154.17 205.2 154.045 205.738 154.055 206.717C154.065 207.709 154.2 208.236 154.669 209.153C154.984 209.773 155.109 209.941 155.691 210.502C156.273 211.064 156.446 211.183 157.08 211.479C158.018 211.919 158.554 212.039 159.556 212.023C160.55 212.007 161.084 211.869 162.019 211.399C162.654 211.083 162.804 210.972 163.381 210.379C163.952 209.799 164.08 209.627 164.383 208.997C164.833 208.065 164.958 207.533 164.948 206.542C164.938 205.55 164.802 205.022 164.333 204.105C164.018 203.485 163.893 203.318 163.311 202.756C162.729 202.195 162.556 202.075 161.922 201.78C161.522 201.596 160.999 201.401 160.751 201.343C160.084 201.198 159.096 201.186 158.473 201.312ZM161.026 202.018C162.437 202.471 163.628 203.614 164.116 204.999C164.349 205.682 164.442 206.767 164.312 207.456C163.85 209.936 161.596 211.644 159.035 211.454C157.23 211.32 155.57 210.056 154.922 208.34C154.005 205.929 155.233 203.144 157.631 202.168C158.39 201.864 158.616 201.826 159.59 201.831C160.317 201.833 160.537 201.863 161.026 202.018Z" fill="black"/>
<path d="M193.205 201.542C190.889 201.844 189.167 203.815 189.19 206.145C189.222 209.984 193.689 212.032 196.738 209.598C198.378 208.28 198.889 205.901 197.93 204.007C197.055 202.268 195.165 201.286 193.205 201.542ZM194.617 202.063C194.844 202.1 195.291 202.249 195.608 202.393C197.318 203.174 198.25 205.103 197.83 206.992C197.508 208.424 196.265 209.687 194.828 210.043C193.405 210.392 191.939 210.008 190.914 209.012C190.103 208.237 189.675 207.238 189.677 206.124C189.677 205.431 189.782 204.967 190.091 204.31C190.709 202.989 192.038 202.111 193.587 201.984C193.896 201.966 194.026 201.97 194.617 202.063Z" fill="black"/>
<path d="M227.109 201.907C225.741 202.31 224.749 203.338 224.413 204.702C224.268 205.282 224.326 206.273 224.538 206.841C224.919 207.854 225.812 208.723 226.866 209.086C227.437 209.288 228.741 209.28 229.295 209.081C230.416 208.676 231.319 207.785 231.686 206.726C231.852 206.234 231.918 205.227 231.81 204.747C231.516 203.474 230.606 202.429 229.401 202C228.795 201.778 227.69 201.735 227.109 201.907ZM229.53 202.5C230.268 202.849 230.794 203.363 231.158 204.098C231.417 204.617 231.418 204.631 231.426 205.48L231.435 206.329L231.153 206.918C230.447 208.37 228.918 209.121 227.35 208.8C226.195 208.56 225.086 207.491 224.814 206.354C224.714 205.934 224.707 205.228 224.799 204.805C225.034 203.707 225.978 202.7 227.133 202.301C227.318 202.244 227.675 202.211 228.182 202.216C228.923 202.225 228.971 202.237 229.53 202.5Z" fill="black"/>
<path d="M261.615 202.161C260.343 202.535 259.435 203.732 259.448 205.023C259.464 206.605 260.829 207.922 262.428 207.896C264.026 207.871 265.364 206.511 265.348 204.928C265.329 203.046 263.421 201.636 261.615 202.161ZM263.506 202.613C264.03 202.856 264.494 203.304 264.76 203.816C264.942 204.187 264.964 204.282 264.97 204.934C264.977 205.586 264.957 205.681 264.783 206.058C264.527 206.578 264.072 207.041 263.554 207.307C263.178 207.49 263.082 207.512 262.424 207.523C261.765 207.533 261.669 207.514 261.29 207.344C260.766 207.094 260.302 206.646 260.043 206.141C259.784 205.635 259.714 204.828 259.873 204.262C260.092 203.504 260.805 202.759 261.55 202.509C261.748 202.438 262.077 202.405 262.482 202.412C263.003 202.417 263.162 202.449 263.506 202.613Z" fill="black"/>
<path d="M296.128 202.415C295.177 202.695 294.602 203.472 294.612 204.457C294.618 205.055 294.773 205.44 295.168 205.862C295.979 206.732 297.461 206.708 298.255 205.812C298.641 205.378 298.788 204.988 298.782 204.39C298.776 203.792 298.622 203.408 298.226 202.986C297.727 202.45 296.826 202.207 296.128 202.415ZM297.545 202.766C298.165 203.075 298.542 203.681 298.549 204.394C298.56 205.447 297.779 206.241 296.716 206.258C295.659 206.275 294.842 205.486 294.838 204.447C294.831 203.061 296.297 202.154 297.545 202.766Z" fill="black"/>
<path d="M4.71626 221.28C2.06468 221.635 0.147739 224.078 0.469146 226.688C0.894967 230.126 4.70821 232.022 7.73699 230.295C10.4043 228.784 11.0408 225.227 9.0553 222.929C7.98626 221.696 6.33332 221.07 4.71626 221.28Z" fill="black"/>
<path d="M38.7663 221.215C36.7326 221.607 35.1467 223.549 35.1676 225.614C35.1871 227.537 36.5563 229.281 38.469 229.814C39.0401 229.975 40.3023 229.955 40.8699 229.776C42.0463 229.41 43.1075 228.51 43.6182 227.449C43.934 226.791 44.0919 226.123 44.0854 225.471C44.0661 223.562 42.6898 221.797 40.8184 221.283C40.3574 221.155 39.2662 221.118 38.7663 221.215Z" fill="black"/>
<path d="M73.3643 221.059C71.3369 221.398 69.9128 223.051 69.933 225.055C69.9382 225.565 69.975 225.816 70.1235 226.248C71.0571 229.019 74.5579 229.866 76.6917 227.834C78.5945 226.03 78.2406 222.917 75.9834 221.568C75.3 221.151 74.1383 220.931 73.3643 221.059Z" fill="black"/>
<path d="M107.319 221.023C106.717 221.196 106.13 221.545 105.689 221.994C104.296 223.409 104.319 225.596 105.739 226.967C107.159 228.337 109.368 228.301 110.76 226.886C112.146 225.477 112.123 223.276 110.71 221.913C109.816 221.051 108.475 220.699 107.319 221.023Z" fill="black"/>
<path d="M142.012 220.839C140.615 221.113 139.645 222.127 139.426 223.544C139.226 224.859 140.112 226.312 141.386 226.767C142.46 227.151 143.57 226.99 144.435 226.317C145.885 225.193 146.049 223.084 144.786 221.739C144.141 221.049 142.93 220.654 142.012 220.839Z" fill="black"/>
<path d="M176.076 220.788C175.276 221.065 174.725 221.557 174.39 222.275C174.195 222.693 174.175 222.795 174.181 223.38C174.187 223.964 174.209 224.065 174.412 224.477C174.692 225.05 175.149 225.491 175.735 225.753C176.156 225.943 176.259 225.962 176.849 225.953C177.439 225.943 177.541 225.921 177.958 225.717C178.538 225.436 178.986 224.981 179.255 224.399C179.45 223.981 179.469 223.879 179.463 223.295C179.457 222.71 179.436 222.609 179.233 222.198C178.784 221.274 177.921 220.731 176.899 220.706C176.569 220.698 176.24 220.731 176.076 220.788Z" fill="black"/>
<path d="M210.565 220.654C210.058 220.805 209.867 220.917 209.508 221.29C208.672 222.146 208.7 223.525 209.566 224.367C210.98 225.73 213.357 224.713 213.337 222.75C213.323 221.324 211.919 220.259 210.565 220.654Z" fill="black"/>
<path d="M244.718 220.622C243.284 221.29 243.289 223.206 244.716 223.849C245.86 224.368 247.21 223.469 247.204 222.206C247.194 221.255 246.363 220.453 245.402 220.468C245.169 220.472 244.909 220.53 244.718 220.622Z" fill="black"/>
<path d="M279.302 220.433C278.885 220.569 278.566 220.907 278.44 221.343C278.347 221.671 278.348 221.739 278.447 222.07C278.525 222.327 278.637 222.502 278.823 222.662C279.578 223.316 280.727 222.978 280.999 222.023C281.091 221.695 281.091 221.627 280.991 221.302C280.857 220.863 280.531 220.542 280.084 220.413C279.691 220.304 279.691 220.304 279.302 220.433Z" fill="black"/>
<path d="M21.3981 233.112C17.8626 233.577 14.7313 236.026 13.4744 239.287C12.9464 240.675 12.752 241.799 12.8076 243.232C12.9849 247.876 16.3022 251.608 20.9967 252.449C21.8421 252.606 23.6393 252.57 24.4952 252.393C28.603 251.532 31.6183 248.467 32.3797 244.378C32.5357 243.526 32.5246 241.746 32.3446 240.913C31.4939 236.843 28.3415 233.809 24.2871 233.161C23.5723 233.044 22.1039 233.02 21.3981 233.112ZM24.3454 234.179C28.6489 235.034 31.6366 238.744 31.481 243.033C31.4009 245.29 30.5496 247.268 28.9605 248.89C27.1744 250.699 24.9194 251.605 22.3597 251.544C18.2696 251.447 14.8934 248.668 13.9745 244.64C13.8739 244.193 13.8424 243.786 13.8397 242.841C13.8351 241.707 13.8474 241.564 14.0321 240.834C14.448 239.217 15.2028 237.873 16.3369 236.713C17.6612 235.374 19.2649 234.526 21.1891 234.155C21.8602 234.029 23.6442 234.041 24.3454 234.179Z" fill="black"/>
<path d="M55.7955 233.477C54.275 233.732 53.0175 234.221 51.9001 234.993C49.9584 236.343 48.661 238.307 48.1767 240.625C48.0851 241.068 48.0551 241.49 48.0642 242.393C48.0733 243.297 48.1119 243.717 48.2124 244.157C49.0161 247.65 51.7043 250.243 55.2517 250.947C56.0766 251.111 57.9974 251.08 58.8188 250.89C62.3507 250.072 64.9857 247.394 65.7186 243.876C65.8887 243.058 65.8695 241.156 65.6829 240.343C64.8865 236.898 62.2602 234.324 58.7811 233.585C58.2104 233.458 56.3024 233.394 55.7955 233.477ZM58.3849 234.434C61.7254 235.039 64.2969 237.627 64.8519 240.948C65.0562 242.154 64.9144 243.733 64.5003 244.847C63.0713 248.729 59.0179 250.907 55.0016 249.959C53.4954 249.603 51.9078 248.65 50.9151 247.504C48.3258 244.522 48.2827 240.256 50.8109 237.192C51.997 235.753 53.8799 234.697 55.8048 234.394C56.3939 234.303 57.7732 234.328 58.3849 234.434Z" fill="black"/>
<path d="M90.481 233.836C86.629 234.218 83.5798 237.317 83.2891 241.141C83.1144 243.542 84.009 245.838 85.7613 247.467C87.3058 248.903 89.1998 249.627 91.3264 249.593C95.7646 249.515 99.2552 245.966 99.2177 241.571C99.1883 238.67 97.6118 236.1 95.0179 234.694C93.7761 234.021 91.9957 233.683 90.481 233.836ZM92.6994 234.745C95.4355 235.286 97.632 237.418 98.2356 240.119C98.4224 240.952 98.442 242.215 98.272 243.047C97.8013 245.351 96.1543 247.341 93.9543 248.253C92.3145 248.932 90.277 248.951 88.6171 248.312C86.8263 247.62 85.3504 246.19 84.6191 244.428C83.7966 242.471 83.9572 240.036 85.0161 238.232C86.6216 235.522 89.6471 234.142 92.6994 234.745Z" fill="black"/>
<path d="M124.378 234.27C120.098 235.005 117.473 239.402 118.88 243.463C120.13 247.044 124.122 248.977 127.753 247.764C130.905 246.708 132.952 243.529 132.542 240.329C132.296 238.389 131.402 236.8 129.901 235.642C128.332 234.431 126.344 233.933 124.378 234.27ZM127.124 235.075C129.332 235.665 130.974 237.249 131.634 239.426C131.868 240.176 131.915 241.433 131.745 242.271C131.158 245.229 128.62 247.349 125.609 247.398C122.124 247.454 119.269 244.7 119.235 241.249C119.205 238.301 121.258 235.727 124.18 235.048C124.967 234.858 126.381 234.876 127.124 235.075Z" fill="black"/>
<path d="M158.625 234.671C156.271 235.238 154.626 236.773 153.949 239.04C153.79 239.579 153.771 239.749 153.78 240.66C153.789 241.509 153.819 241.773 153.947 242.22C154.558 244.316 156.103 245.834 158.236 246.445C158.78 246.599 158.952 246.61 159.905 246.602C160.872 246.586 161.023 246.563 161.57 246.391C163.649 245.719 165.116 244.228 165.74 242.153C165.899 241.606 165.918 241.457 165.909 240.499C165.892 239.555 165.877 239.385 165.707 238.851C165.034 236.755 163.44 235.246 161.329 234.722C160.614 234.544 159.255 234.518 158.625 234.671ZM161.232 235.342C161.514 235.419 162.024 235.615 162.369 235.786C162.872 236.029 163.114 236.209 163.648 236.73C164.188 237.245 164.376 237.479 164.634 237.971C165.075 238.8 165.253 239.429 165.296 240.305C165.366 241.826 164.892 243.124 163.84 244.242C162.727 245.442 161.354 246.028 159.728 246C158.808 245.981 158.182 245.828 157.32 245.407C156.817 245.163 156.575 244.984 156.041 244.462C155.501 243.948 155.314 243.713 155.048 243.214C154.558 242.292 154.408 241.71 154.398 240.684C154.387 239.658 154.526 239.071 154.996 238.133C155.252 237.626 155.435 237.385 155.965 236.854C156.487 236.315 156.726 236.128 157.224 235.869C157.859 235.532 158.399 235.34 159.001 235.235C159.536 235.145 160.654 235.195 161.232 235.342Z" fill="black"/>
<path d="M192.824 235.099C191.087 235.596 189.789 236.826 189.209 238.527C189.036 239.033 189.023 239.149 189.033 240.127C189.043 241.105 189.058 241.221 189.241 241.72C189.523 242.497 189.941 243.129 190.537 243.711C191.14 244.285 191.789 244.683 192.581 244.942C193.09 245.11 193.207 245.122 194.195 245.106C195.182 245.09 195.299 245.075 195.805 244.89C196.591 244.605 197.232 244.187 197.822 243.594C198.406 242.993 198.812 242.348 199.078 241.562C199.251 241.057 199.264 240.941 199.254 239.963C199.244 238.984 199.229 238.869 199.046 238.369C198.763 237.593 198.345 236.961 197.75 236.379C197.147 235.798 196.491 235.407 195.706 235.155C194.956 234.916 193.563 234.89 192.824 235.099ZM195.065 235.546C195.87 235.689 196.877 236.223 197.452 236.805C198.014 237.387 198.475 238.209 198.668 239.007C198.783 239.481 198.773 240.562 198.655 241.066C198.259 242.683 196.935 244.036 195.32 244.476C194.787 244.621 193.6 244.64 193.057 244.513C191.427 244.124 190.096 242.841 189.662 241.238C189.519 240.697 189.507 239.528 189.639 238.996C190.253 236.588 192.605 235.096 195.065 235.546Z" fill="black"/>
<path d="M227.55 235.404C225.873 235.744 224.542 237.165 224.265 238.915C224.168 239.515 224.169 239.61 224.278 240.22C224.598 241.981 225.942 243.318 227.681 243.616C228.362 243.735 228.636 243.73 229.293 243.591C231.025 243.223 232.336 241.843 232.62 240.085C232.717 239.472 232.716 239.377 232.606 238.768C232.287 237.006 230.942 235.669 229.197 235.371C228.578 235.265 228.221 235.271 227.55 235.404ZM229.325 235.844C231.003 236.252 232.198 237.735 232.215 239.433C232.236 241.491 230.559 243.197 228.48 243.23C226.868 243.256 225.417 242.26 224.86 240.74C224.698 240.294 224.626 239.29 224.73 238.785C224.92 237.824 225.63 236.821 226.482 236.304C227.335 235.795 228.403 235.621 229.325 235.844Z" fill="black"/>
<path d="M261.708 235.861C261.127 236.06 260.725 236.332 260.271 236.835C259.484 237.704 259.249 238.89 259.63 239.991C259.835 240.558 259.967 240.781 260.39 241.209C260.806 241.637 261.179 241.862 261.764 242.049C262.583 242.301 263.461 242.226 264.266 241.826C264.648 241.636 265.301 241.028 265.557 240.609C266.03 239.854 266.157 238.826 265.881 237.968C265.696 237.4 265.536 237.131 265.099 236.683C264.198 235.759 262.919 235.447 261.708 235.861ZM263.433 236.111C264.589 236.392 265.421 237.275 265.639 238.461C265.965 240.256 264.391 241.973 262.531 241.847C260.8 241.732 259.521 240.095 259.848 238.432C260.181 236.782 261.81 235.723 263.433 236.111Z" fill="black"/>
<path d="M296.127 236.245C295.607 236.45 295.037 237.037 294.85 237.563C294.523 238.459 294.732 239.406 295.404 240.055C295.889 240.522 296.378 240.712 297.064 240.701C297.75 240.69 298.235 240.485 298.71 240.002C299.185 239.518 299.38 239.033 299.373 238.353C299.366 237.674 299.162 237.195 298.677 236.727C298.185 236.253 297.703 236.07 296.996 236.088C296.667 236.094 296.38 236.146 296.127 236.245ZM297.72 236.423C298.167 236.545 298.617 236.932 298.883 237.437C299.093 237.835 299.122 237.957 299.126 238.364C299.117 239.526 298.234 240.417 297.068 240.449C296.245 240.476 295.562 240.066 295.184 239.324C295.002 238.96 294.959 238.805 294.955 238.431C294.948 237.698 295.318 237.019 295.905 236.663C296.505 236.307 297.025 236.237 297.72 236.423Z" fill="black"/>
<path d="M4.34886 254.844C2.48094 255.349 1.11483 256.628 0.495134 258.445C0.281938 259.074 0.275627 259.128 0.285927 260.147C0.296226 261.166 0.303636 261.221 0.529466 261.842C1.19283 263.666 2.65336 264.94 4.55791 265.345C5.13544 265.464 6.31532 265.445 6.89024 265.307C8.78601 264.842 10.2203 263.521 10.8466 261.676C11.0598 261.048 11.0661 260.993 11.0558 259.974C11.0455 258.955 11.0381 258.901 10.8123 258.28C10.1489 256.456 8.68837 255.181 6.78381 254.777C6.17192 254.651 4.95787 254.684 4.34886 254.844Z" fill="black"/>
<path d="M38.8513 254.737C37.2906 255.095 35.9237 256.3 35.3353 257.817C34.5131 259.964 35.3546 262.444 37.3292 263.663C39.6557 265.093 42.6949 264.392 44.1468 262.099C45.8148 259.456 44.6478 256.003 41.7071 254.909C40.8669 254.596 39.7411 254.533 38.8513 254.737Z" fill="black"/>
<path d="M73.2649 254.667C71.7521 255.01 70.4135 256.302 69.9625 257.838C69.7967 258.405 69.8094 259.655 69.9866 260.216C70.3482 261.379 71.2507 262.424 72.3192 262.923C73.6496 263.541 74.9804 263.519 76.2979 262.86C77.3559 262.326 78.237 261.252 78.575 260.078C78.7408 259.511 78.7282 258.261 78.551 257.7C78.1893 256.537 77.2868 255.492 76.2183 254.993C75.2602 254.546 74.2642 254.433 73.2649 254.667Z" fill="black"/>
<path d="M107.706 254.589C105.94 254.991 104.571 256.691 104.589 258.471C104.607 260.264 106.01 261.913 107.818 262.258C108.711 262.427 109.513 262.305 110.387 261.87C111.649 261.231 112.561 259.742 112.546 258.343C112.537 257.371 112.066 256.319 111.325 255.604C110.341 254.655 109.013 254.282 107.706 254.589Z" fill="black"/>
<path d="M142.147 254.511C140.511 254.883 139.4 256.274 139.416 257.911C139.433 259.602 140.599 260.929 142.338 261.241C142.854 261.334 142.95 261.333 143.463 261.223C145.195 260.855 146.334 259.492 146.317 257.8C146.3 256.149 145.155 254.802 143.484 254.482C142.907 254.369 142.722 254.372 142.147 254.511Z" fill="black"/>
<path d="M176.28 254.485C175.466 254.77 174.806 255.351 174.457 256.104C174.256 256.542 174.243 256.61 174.25 257.351C174.258 258.091 174.272 258.159 174.482 258.591C174.777 259.191 175.324 259.719 175.937 259.994C176.378 260.191 176.447 260.203 177.195 260.191C177.943 260.179 178.011 260.165 178.448 259.954C179.056 259.659 179.592 259.113 179.874 258.504C180.076 258.066 180.089 257.998 180.081 257.257C180.074 256.517 180.059 256.449 179.849 256.018C179.555 255.418 179.007 254.89 178.394 254.614C177.98 254.431 177.843 254.406 177.239 254.402C176.807 254.395 176.45 254.428 176.28 254.485Z" fill="black"/>
<path d="M210.638 254.442C209.955 254.698 209.472 255.147 209.17 255.818C209.05 256.085 209.024 256.269 209.029 256.792C209.035 257.349 209.064 257.491 209.225 257.822C209.463 258.314 209.941 258.775 210.444 258.998C210.782 259.149 210.926 259.174 211.489 259.164C212.051 259.155 212.195 259.126 212.53 258.964C213.028 258.725 213.497 258.249 213.725 257.749C213.879 257.414 213.905 257.271 213.9 256.714C213.894 256.157 213.865 256.014 213.704 255.684C213.466 255.192 212.981 254.724 212.485 254.508C211.961 254.278 211.151 254.251 210.638 254.442Z" fill="black"/>
<path d="M245.059 254.378C244.546 254.556 244.024 255.108 243.878 255.62C243.745 256.084 243.748 256.383 243.89 256.85C244.117 257.58 244.981 258.184 245.783 258.172C246.833 258.155 247.763 257.209 247.753 256.169C247.748 255.653 247.544 255.208 247.129 254.814C246.54 254.239 245.852 254.094 245.059 254.378Z" fill="black"/>
<path d="M279.534 254.272C279.001 254.478 278.548 255.124 278.553 255.681C278.557 255.994 278.76 256.446 279.023 256.699C279.28 256.954 279.748 257.15 280.078 257.145C280.407 257.139 280.871 256.928 281.123 256.666C281.381 256.403 281.575 255.945 281.572 255.633C281.566 255.062 281.1 254.438 280.535 254.25C280.171 254.133 279.896 254.138 279.534 254.272Z" fill="black"/>
<path d="M21.5254 266.071C20.3675 266.232 18.7333 266.775 17.7509 267.327C16.3592 268.111 14.7887 269.535 13.9574 270.779C12.0312 273.663 11.5792 277.143 12.7098 280.392C13.268 281.994 14.0834 283.251 15.3791 284.508C17.0073 286.072 18.7314 286.954 21.0412 287.406C22.0862 287.614 24.1167 287.581 25.1571 287.34C27.4503 286.821 29.1628 285.876 30.7519 284.254C32.3478 282.638 33.2567 280.918 33.7207 278.635C33.9367 277.598 33.9163 275.588 33.6795 274.559C33.0834 271.925 31.7377 269.793 29.6633 268.189C27.4367 266.472 24.3618 265.672 21.5254 266.071ZM24.5624 267.19C26.5 267.472 28.3205 268.387 29.8171 269.831C30.6969 270.673 31.3091 271.505 31.7995 272.51C32.4579 273.844 32.7451 275.104 32.7542 276.68C32.77 278.242 32.4611 279.593 31.7685 280.983C29.6367 285.25 24.8007 287.38 20.2045 286.081C17.2045 285.226 14.6064 282.72 13.6641 279.772C12.2184 275.216 14.3026 270.311 18.6031 268.149C20.494 267.202 22.4393 266.885 24.5624 267.19Z" fill="black"/>
<path d="M56.2665 266.497C55.2316 266.609 53.8977 267.004 52.9147 267.496C50.0952 268.886 48.1524 271.486 47.56 274.641C47.4039 275.493 47.4151 277.273 47.595 278.106C48.4527 282.189 51.5773 285.19 55.687 285.871C56.6354 286.026 58.3708 285.984 59.288 285.772C63.2857 284.872 66.1855 281.924 66.9891 277.944C67.1789 277.03 67.1752 275.311 66.9942 274.376C66.2056 270.339 63.0806 267.298 58.9773 266.576C58.4206 266.476 56.849 266.434 56.2665 266.497ZM59.2352 267.652C62.6598 268.433 65.1896 270.961 65.9651 274.379C66.0657 274.826 66.0973 275.233 66.1 276.178C66.1046 277.312 66.0923 277.455 65.9076 278.185C64.8447 282.313 61.1748 285.103 56.9746 284.967C52.0744 284.815 48.2879 280.819 48.4586 275.986C48.5169 274.286 48.9692 272.872 49.9016 271.451C51.2598 269.391 53.3524 268.032 55.8657 267.57C56.7217 267.414 58.3619 267.456 59.2352 267.652Z" fill="black"/>
<path d="M90.4731 266.994C86.6567 267.497 83.5378 270.489 82.8831 274.277C82.7404 275.095 82.7625 276.596 82.9213 277.382C83.6504 280.958 86.4565 283.664 90.0854 284.292C90.8826 284.429 92.3987 284.411 93.2204 284.249C98.0203 283.308 101.151 278.733 100.259 273.964C99.5773 270.36 96.5849 267.541 92.8746 267.01C92.2494 266.925 91.0829 266.916 90.4731 266.994ZM93.5231 268.046C96.2537 268.715 98.4638 270.847 99.239 273.552C99.4098 274.161 99.4251 274.317 99.4375 275.54C99.4499 276.77 99.4377 276.912 99.2725 277.547C98.9423 278.809 98.0388 280.387 97.1622 281.223C96.2313 282.114 94.867 282.897 93.7038 283.208C90.9327 283.952 88.0575 283.231 86.0483 281.299C83.6441 278.974 82.997 275.363 84.4485 272.35C84.8113 271.59 85.5148 270.593 86.0176 270.109C87.0912 269.08 88.4491 268.351 89.9003 268.015C90.8243 267.804 92.5809 267.816 93.5231 268.046Z" fill="black"/>
<path d="M124.817 267.488C121.666 267.967 119.116 270.236 118.357 273.225C118.001 274.616 118.013 275.805 118.391 277.219C118.954 279.323 120.53 281.166 122.563 282.099C124.748 283.103 127.211 283.063 129.361 281.989C131.805 280.768 133.38 278.453 133.654 275.69C133.878 273.424 132.907 270.986 131.155 269.411C129.881 268.263 128.351 267.601 126.573 267.426C125.852 267.356 125.605 267.367 124.817 267.488ZM127.536 268.382C130.053 268.987 132.021 270.912 132.678 273.416C132.913 274.322 132.915 275.803 132.677 276.725C132.05 279.174 130.148 281.1 127.692 281.792C126.769 282.051 125.28 282.089 124.352 281.88C121.807 281.295 119.84 279.425 119.129 276.922C118.879 276.029 118.851 274.542 119.068 273.634C119.74 270.845 121.976 268.764 124.832 268.269C125.51 268.156 126.8 268.21 127.536 268.382Z" fill="black"/>
<path d="M159.455 267.923C156.577 268.221 154.129 270.468 153.555 273.352C153.418 274.054 153.43 275.29 153.581 275.988C154.214 278.872 156.678 281 159.624 281.224C160.901 281.319 162.079 281.083 163.232 280.494C165.328 279.427 166.72 277.38 166.91 275.08C167.167 271.985 165.23 269.121 162.25 268.184C161.369 267.913 160.449 267.826 159.455 267.923ZM161.673 268.73C163.399 269.171 164.866 270.371 165.643 271.975C166.085 272.879 166.171 273.271 166.19 274.433C166.201 275.513 166.149 275.867 165.849 276.647C165.588 277.33 165.176 277.982 164.66 278.548C164.09 279.168 163.525 279.592 162.767 279.951C161.839 280.4 161.462 280.481 160.248 280.501C159.04 280.52 158.656 280.452 157.725 280.039C156.367 279.435 155.37 278.48 154.732 277.151C154.284 276.235 154.204 275.862 154.192 274.66C154.18 273.457 154.252 273.082 154.682 272.151C155.131 271.166 155.877 270.257 156.728 269.666C157.382 269.207 158.421 268.782 159.202 268.641C159.626 268.566 161.26 268.628 161.673 268.73Z" fill="black"/>
<path d="M193.34 268.459C192.813 268.576 192.362 268.753 191.727 269.083C191.215 269.349 190.997 269.523 190.434 270.096C189.877 270.668 189.694 270.902 189.438 271.409C188.914 272.457 188.815 272.88 188.827 274.103C188.84 275.326 188.94 275.745 189.493 276.776C189.758 277.281 189.932 277.496 190.507 278.051C191.082 278.599 191.317 278.778 191.827 279.028C192.882 279.541 193.309 279.636 194.543 279.617C195.785 279.597 196.209 279.488 197.247 278.941C197.752 278.675 197.983 278.488 198.54 277.922C199.097 277.356 199.28 277.122 199.535 276.615C200.06 275.573 200.159 275.151 200.146 273.921C200.134 272.698 200.027 272.279 199.481 271.248C199.215 270.749 199.028 270.521 198.46 269.967C197.884 269.412 197.663 269.246 197.146 268.996C196.146 268.509 195.713 268.407 194.602 268.398C194.073 268.393 193.504 268.422 193.34 268.459ZM195.651 269.074C197.123 269.377 198.471 270.456 199.13 271.858C199.446 272.519 199.575 273.115 199.584 273.93C199.592 274.745 199.474 275.345 199.172 276.016C198.535 277.446 197.243 278.54 195.717 278.932C195.114 279.084 193.962 279.103 193.357 278.97C191.823 278.628 190.509 277.575 189.843 276.166C189.528 275.505 189.398 274.909 189.39 274.094C189.378 272.959 189.664 272.038 190.3 271.137C191.497 269.426 193.547 268.632 195.651 269.074Z" fill="black"/>
<path d="M227.745 268.959C226.116 269.338 224.886 270.473 224.326 272.099C224.166 272.563 224.147 272.713 224.155 273.535C224.164 274.364 224.186 274.506 224.362 274.993C224.877 276.391 225.903 277.387 227.314 277.86C227.865 278.048 227.968 278.06 228.832 278.046C229.655 278.033 229.813 278.01 230.278 277.839C231.323 277.456 232.134 276.831 232.694 275.966C233.6 274.586 233.692 272.811 232.942 271.335C232.004 269.482 229.806 268.477 227.745 268.959ZM229.65 269.404C231.513 269.761 232.951 271.491 232.97 273.393C232.993 275.662 231.119 277.568 228.828 277.605C226.53 277.642 224.624 275.804 224.601 273.528C224.589 272.285 225.213 270.977 226.173 270.241C227.188 269.457 228.413 269.159 229.65 269.404Z" fill="black"/>
<path d="M262.158 269.425C260.543 269.893 259.433 271.344 259.449 272.968C259.47 275.026 261.256 276.648 263.327 276.486C265.987 276.28 267.509 273.538 266.278 271.173C266.033 270.701 265.402 270.052 264.94 269.788C264.16 269.352 262.951 269.195 262.158 269.425ZM263.684 269.74C264.178 269.793 264.937 270.189 265.367 270.61C266.947 272.161 266.513 274.77 264.5 275.788C263.981 276.054 263.974 276.054 263.117 276.068C262.259 276.082 262.252 276.082 261.728 275.832C260.363 275.195 259.65 273.855 259.889 272.39C260.109 271.048 261.25 269.929 262.572 269.738C263.025 269.676 263.107 269.675 263.684 269.74Z" fill="black"/>
<path d="M296.7 269.875C295.126 270.302 294.321 272.129 295.077 273.577C295.154 273.719 295.355 273.98 295.522 274.154C296.957 275.64 299.529 274.865 299.927 272.827C300.025 272.343 299.972 271.848 299.761 271.321C299.549 270.774 298.919 270.166 298.354 269.971C297.845 269.789 297.165 269.752 296.7 269.875ZM298.089 270.179C298.481 270.295 298.619 270.381 298.986 270.729C299.347 271.083 299.437 271.217 299.565 271.603C299.649 271.86 299.714 272.178 299.716 272.32C299.717 272.463 299.659 272.783 299.579 273.043C299.46 273.432 299.372 273.569 299.019 273.935C298.659 274.294 298.522 274.385 298.133 274.513C297.873 274.599 297.551 274.665 297.407 274.668C297.263 274.67 296.94 274.614 296.678 274.537C296.286 274.421 296.148 274.335 295.781 273.987C295.421 273.633 295.33 273.498 295.203 273.113C295.118 272.856 295.053 272.538 295.051 272.395C295.05 272.253 295.108 271.933 295.188 271.673C295.308 271.284 295.395 271.147 295.748 270.781C296.095 270.429 296.252 270.324 296.614 270.203C297.182 270.017 297.511 270.012 298.089 270.179Z" fill="black"/>
<path d="M4.68646 288.247C4.14571 288.371 3.3259 288.717 2.75311 289.066C2.26215 289.366 1.20953 290.436 0.919503 290.93C0.245197 292.096 0.00140935 293.092 0.0694026 294.389C0.12779 295.414 0.235012 295.84 0.689962 296.729C1.29206 297.922 2.20661 298.805 3.4267 299.369C4.46068 299.849 4.81822 299.924 6.07356 299.904C7.3289 299.884 7.68479 299.797 8.70874 299.284C9.92388 298.681 10.8134 297.769 11.3912 296.557C11.8681 295.537 11.9598 295.115 11.9475 293.899C11.9285 292.69 11.8424 292.324 11.3384 291.326C10.9532 290.558 10.4322 289.914 9.75435 289.375C9.2494 288.968 8.1462 288.429 7.4996 288.263C6.90115 288.109 5.30933 288.101 4.68646 288.247Z" fill="black"/>
<path d="M38.9911 288.259C36.8772 288.864 35.4445 290.348 34.9851 292.407C34.8605 292.98 34.8723 294.148 35.0084 294.717C35.4665 296.592 36.7912 298.004 38.6498 298.613C39.2831 298.82 39.338 298.826 40.367 298.809C41.396 298.793 41.4508 298.785 42.0797 298.558C43.9254 297.889 45.2211 296.435 45.6411 294.546C45.6935 294.301 45.7363 293.784 45.7323 293.39C45.7284 292.995 45.6751 292.48 45.6178 292.236C45.1529 290.362 43.8212 288.936 41.9765 288.347C41.3914 288.16 41.2265 288.135 40.3963 288.128C39.6484 288.126 39.3742 288.151 38.9911 288.259Z" fill="black"/>
<path d="M74.0008 288.111C71.3493 288.466 69.4323 290.909 69.7537 293.52C70.0825 296.185 72.5236 298.075 75.1821 297.733C77.875 297.391 79.7989 294.962 79.4705 292.331C79.1415 289.652 76.673 287.755 74.0008 288.111Z" fill="black"/>
<path d="M108.25 288.104C107.333 288.261 106.445 288.731 105.8 289.394C104.958 290.263 104.564 291.255 104.576 292.444C104.588 293.632 105.002 294.611 105.868 295.453C107.282 296.837 109.466 297.08 111.192 296.033C111.71 295.713 112.355 295.064 112.672 294.522C113.468 293.164 113.45 291.445 112.62 290.092C112.3 289.581 111.648 288.946 111.103 288.636C110.296 288.173 109.12 287.954 108.25 288.104Z" fill="black"/>
<path d="M142.726 288.066C141.87 288.209 141.092 288.609 140.501 289.209C139.768 289.955 139.399 290.858 139.41 291.884C139.42 292.909 139.806 293.8 140.555 294.522C141.303 295.244 142.212 295.603 143.248 295.586C144.284 295.569 145.186 295.181 145.919 294.436C146.652 293.69 147.021 292.787 147.01 291.761C146.993 290.083 145.867 288.641 144.223 288.185C143.831 288.075 143.055 288.013 142.726 288.066Z" fill="black"/>
<path d="M176.661 288.159C175.177 288.584 174.262 289.774 174.257 291.289C174.257 291.989 174.385 292.422 174.762 293.027C175.236 293.788 175.975 294.265 176.979 294.459C177.508 294.56 177.577 294.559 178.104 294.441C179.103 294.215 179.832 293.714 180.291 292.939C180.642 292.342 180.767 291.885 180.761 291.219C180.739 289.093 178.713 287.576 176.661 288.159Z" fill="black"/>
<path d="M211.116 288.115C210.028 288.425 209.309 289.224 209.115 290.355C208.972 291.146 209.29 292.065 209.906 292.653C210.516 293.248 211.452 293.538 212.246 293.376C213.465 293.132 214.287 292.297 214.501 291.084C214.644 290.301 214.326 289.375 213.723 288.793C213.335 288.419 212.983 288.228 212.419 288.094C211.938 287.98 211.588 287.985 211.116 288.115Z" fill="black"/>
<path d="M245.585 288.071C244.942 288.244 244.397 288.701 244.115 289.31C243.753 290.104 243.948 291.114 244.586 291.722C245.438 292.53 246.823 292.508 247.659 291.672C247.802 291.527 248.004 291.232 248.098 291.027C248.461 290.233 248.265 289.223 247.628 288.615C247.115 288.134 246.235 287.897 245.585 288.071Z" fill="black"/>
<path d="M279.841 288.084C279.506 288.198 278.936 288.791 278.837 289.14C278.651 289.781 278.793 290.289 279.285 290.756C279.639 291.104 279.99 291.255 280.422 291.248C281.273 291.234 282.061 290.433 282.052 289.591C282.048 289.163 281.887 288.819 281.526 288.478C281.041 288.003 280.477 287.877 279.841 288.084Z" fill="black"/>
</svg>
