<svg width="48" height="48" viewBox="0 0 48 48" fill="none" xmlns="http://www.w3.org/2000/svg">
<path d="M33.1657 34.3543C33.1384 34.43 33.0865 34.4953 33.0174 34.5408C32.9482 34.5862 32.8656 34.6095 32.7816 34.6071H31.9431L32.4639 32.1376C32.5263 32.2547 32.5824 32.3747 32.632 32.4972L33.1768 34.1133C33.2058 34.192 33.2017 34.2783 33.1657 34.3543ZM14.8346 34.3555C14.7984 34.2794 14.7941 34.193 14.8227 34.114L15.3613 32.5156C15.4126 32.3871 15.471 32.2612 15.5359 32.1383L16.0569 34.6071H15.2184C15.1437 34.6077 15.0703 34.589 15.0061 34.5526C14.9421 34.5162 14.8897 34.4637 14.8549 34.401C14.8471 34.3863 14.8404 34.3711 14.8346 34.3555ZM20.4799 32.3853C20.5759 32.494 20.7015 32.5754 20.8429 32.6208L22.0371 34.6071H21.0193L20.4799 32.3853ZM21.7363 32.5242L22.8066 32.2349C23.1361 32.5113 23.5605 32.6637 24 32.6637C24.4393 32.6637 24.8637 32.5113 25.1932 32.2349L26.2635 32.5242L25.0112 34.6071H22.9888L21.7363 32.5242ZM27.1569 32.6208C27.2403 32.5938 27.3184 32.5543 27.3886 32.5039C27.4368 32.469 27.4809 32.4292 27.5201 32.3853L26.9806 34.6071H25.9627L27.1569 32.6208ZM25.8049 27.2452C25.2947 27.639 24.6573 27.8538 24 27.8538C23.3427 27.8538 22.7053 27.639 22.1949 27.2452C21.8974 27.0137 21.6331 26.7939 21.3811 26.5702C21.3853 26.6093 21.3936 26.6486 21.3976 26.6839C21.4419 27.0305 21.4653 27.3791 21.4678 27.7282L24 29.7929L26.532 27.7282C26.5345 27.3791 26.558 27.0305 26.6022 26.6839C26.6064 26.6447 26.6146 26.6093 26.6187 26.5702C26.3668 26.7939 26.1024 27.0137 25.8049 27.2452ZM17.1142 30.527C16.4616 30.9785 16.3626 31.0569 16.3294 31.0883C16.2799 31.1354 16.2345 31.1904 16.189 31.2375L16.8994 34.6055H18.1056L17.1142 30.527ZM22.3767 31.0412L21.1086 30.3347V31.8774L22.3767 31.5359C22.3587 31.4546 22.3489 31.3716 22.3477 31.2886C22.3492 31.2054 22.3588 31.1226 22.3767 31.0412ZM22.3767 31.0412L21.1086 30.3347V31.8774L22.3767 31.5359C22.3587 31.4546 22.3489 31.3716 22.3477 31.2886C22.3492 31.2054 22.3588 31.1226 22.3767 31.0412ZM19.0515 29.9264C18.6496 29.9508 18.2533 30.0288 17.8743 30.158L18.9523 34.6055H20.1709L19.0557 30.005C19.0501 29.9791 19.0488 29.9526 19.0515 29.9264ZM22.3767 31.0412L21.1086 30.3347V31.8774L22.3767 31.5359C22.3587 31.4546 22.3489 31.3716 22.3477 31.2886C22.3492 31.2054 22.3588 31.1226 22.3767 31.0412ZM22.3767 31.0412L21.1086 30.3347V31.8774L22.3767 31.5359C22.3587 31.4546 22.3489 31.3716 22.3477 31.2886C22.3492 31.2054 22.3588 31.1226 22.3767 31.0412ZM24 30.6998C23.5539 30.6998 23.1738 30.9706 23.1738 31.2886C23.1738 31.6105 23.5539 31.8774 24 31.8774C24.4461 31.8774 24.826 31.6105 24.826 31.2886C24.826 30.9706 24.4461 30.6998 24 30.6998ZM28.9483 29.9264C28.9512 29.9526 28.9497 29.9791 28.9443 30.005L27.829 34.6055H29.0475L30.1255 30.158C29.7465 30.0288 29.3502 29.9508 28.9483 29.9264ZM31.6704 31.0883C31.6374 31.0569 31.5382 30.9785 30.8856 30.527L29.8942 34.6055H31.1004L31.8108 31.2375C31.7655 31.1904 31.72 31.1354 31.6704 31.0883ZM24 30.6998C23.5539 30.6998 23.1738 30.9706 23.1738 31.2886C23.1738 31.6105 23.5539 31.8774 24 31.8774C24.4461 31.8774 24.826 31.6105 24.826 31.2886C24.826 30.9706 24.4461 30.6998 24 30.6998ZM24 30.6998C23.5539 30.6998 23.1738 30.9706 23.1738 31.2886C23.1738 31.6105 23.5539 31.8774 24 31.8774C24.4461 31.8774 24.826 31.6105 24.826 31.2886C24.826 30.9706 24.4461 30.6998 24 30.6998ZM25.6233 31.0412C25.641 31.1226 25.6507 31.2054 25.6522 31.2886C25.6509 31.3716 25.6413 31.4546 25.6233 31.5359L26.8914 31.8774V30.3347L25.6233 31.0412ZM24 30.6998C23.5539 30.6998 23.1738 30.9706 23.1738 31.2886C23.1738 31.6105 23.5539 31.8774 24 31.8774C24.4461 31.8774 24.826 31.6105 24.826 31.2886C24.826 30.9706 24.4461 30.6998 24 30.6998ZM24 30.6998C23.5539 30.6998 23.1738 30.9706 23.1738 31.2886C23.1738 31.6105 23.5539 31.8774 24 31.8774C24.4461 31.8774 24.826 31.6105 24.826 31.2886C24.826 30.9706 24.4461 30.6998 24 30.6998ZM22.3767 31.0412L21.1086 30.3347V31.8774L22.3767 31.5359C22.3587 31.4546 22.3489 31.3716 22.3477 31.2886C22.3492 31.2054 22.3588 31.1226 22.3767 31.0412ZM26.8707 28.4898L24.8632 30.1226C24.9895 30.1875 25.1063 30.2681 25.2102 30.3622L26.6064 29.5849C26.6452 29.5612 26.6889 29.5452 26.7344 29.5378C26.8538 29.5159 26.9767 29.5194 27.0945 29.5479C27.2124 29.5764 27.322 29.6292 27.4159 29.7027C27.5587 29.8135 27.6577 29.9671 27.6969 30.1383L28.0272 29.5888L26.8707 28.4898ZM28.8781 20.3011C28.8505 20.3126 28.8213 20.3206 28.7914 20.3247C28.7695 20.336 28.7488 20.3491 28.7295 20.3639C28.5507 21.1078 28.4716 21.8701 28.494 22.6329C28.5475 22.7004 28.6084 22.7622 28.6758 22.8173C28.775 22.6447 28.9566 22.0951 28.9566 20.8665C28.9683 20.6749 28.9417 20.4832 28.8781 20.3011ZM28.5931 12.7172C28.2709 12.5327 27.6142 12.8742 26.9161 13.2392C26.0611 13.6867 25.0905 14.1931 24 14.1931C19.2415 14.1931 18.6301 15.7673 18.6301 17.1372C18.6283 17.3159 18.6421 17.4945 18.6715 17.6711C18.7512 18.2394 18.9567 18.7853 19.2745 19.2727L21.154 16.992C21.2404 16.8756 21.351 16.7772 21.4788 16.7025C21.6066 16.6281 21.7491 16.5791 21.8974 16.5584C22.0458 16.5379 22.197 16.5462 22.3419 16.583C22.4868 16.6196 22.6222 16.6841 22.7401 16.7722C23.1007 17.0353 23.5425 17.1782 23.9971 17.1789C24.4518 17.1796 24.8941 17.0381 25.2556 16.7761C25.3734 16.6871 25.509 16.622 25.654 16.5846C25.7992 16.5472 25.9509 16.5383 26.0997 16.5585C26.2486 16.5788 26.3916 16.6276 26.5198 16.7021C26.6481 16.7767 26.7591 16.8753 26.846 16.992L28.6179 19.1431L28.8079 19.1471C29.175 18.5345 29.3686 17.842 29.3697 17.1372C29.3697 13.8438 28.9483 12.9134 28.5931 12.7172ZM19.2705 20.3679C19.2459 20.3487 19.2196 20.3316 19.192 20.3168C19.1682 20.313 19.1448 20.3078 19.1217 20.3011C19.0578 20.4831 19.0311 20.6749 19.0432 20.8665C19.0432 22.0951 19.225 22.6447 19.3242 22.8173C19.3914 22.7622 19.4523 22.7004 19.5058 22.6329C19.5283 21.8714 19.4493 21.1104 19.2705 20.3679ZM26.1975 17.4787C26.1757 17.4449 26.1471 17.4159 26.1131 17.3933C26.079 17.3706 26.0403 17.3549 25.9996 17.3472C25.9588 17.3395 25.9168 17.3398 25.8762 17.3482C25.8357 17.3567 25.7973 17.3731 25.7637 17.3964C25.2583 17.7645 24.6395 17.9644 24.0027 17.9651C23.3659 17.9658 22.7466 17.7673 22.2403 17.4003C22.2069 17.3763 22.1685 17.3591 22.1275 17.3501C22.0867 17.3409 22.0443 17.3401 22.0032 17.3475C21.9619 17.3549 21.9228 17.3703 21.8883 17.393C21.8536 17.4156 21.8245 17.4448 21.8025 17.4787L19.9602 19.7162C19.9644 19.7319 19.9684 19.7516 19.9726 19.7712C19.9768 19.7898 19.9822 19.8083 19.9891 19.8262V19.838C20.3118 20.9754 20.4153 22.1591 20.2948 23.3316C20.2866 23.4102 20.2824 23.4964 20.2824 23.5828C20.2824 24.3444 21.1458 25.4278 22.7154 26.6329C23.0782 26.9135 23.5315 27.0669 23.9992 27.0676C24.4669 27.0684 24.9207 26.9162 25.2846 26.6368C26.8542 25.4278 27.7174 24.3444 27.7174 23.5828C27.7174 23.4964 27.7134 23.4102 27.7051 23.3238C27.5901 22.1891 27.6837 21.0441 27.9819 19.9401C27.9859 19.9283 27.9901 19.9047 27.9984 19.8812L28.0189 19.8105C28.0272 19.7791 28.0314 19.7476 28.0396 19.7123L26.1975 17.4787ZM23.5869 23.2217H24.4129C24.5226 23.2217 24.6276 23.2631 24.7051 23.3367C24.7825 23.4103 24.826 23.5101 24.826 23.6143C24.826 23.7184 24.7825 23.8182 24.7051 23.8918C24.6276 23.9654 24.5226 24.0068 24.4129 24.0068H23.5869C23.4774 24.0068 23.3722 23.9654 23.2948 23.8918C23.2173 23.8182 23.1738 23.7184 23.1738 23.6143C23.1738 23.5101 23.2173 23.4103 23.2948 23.3367C23.3722 23.2631 23.4774 23.2217 23.5869 23.2217ZM22.3477 21.2589V21.6515C22.3477 21.7556 22.3042 21.8554 22.2267 21.929C22.1493 22.0028 22.0443 22.0441 21.9346 22.0441C21.8251 22.0441 21.72 22.0028 21.6426 21.929C21.5652 21.8554 21.5215 21.7556 21.5215 21.6515V21.2589H21.1086C20.9989 21.2589 20.8939 21.2176 20.8165 21.144C20.739 21.0704 20.6955 20.9705 20.6955 20.8665C20.6955 20.7623 20.739 20.6624 20.8165 20.5888C20.8939 20.5152 20.9989 20.4739 21.1086 20.4739H22.7608C22.8703 20.4739 22.9753 20.5152 23.0529 20.5888C23.1303 20.6624 23.1738 20.7623 23.1738 20.8665C23.1738 20.9705 23.1303 21.0704 23.0529 21.144C22.9753 21.2176 22.8703 21.2589 22.7608 21.2589H22.3477ZM24.826 25.577H23.1738C23.0643 25.577 22.9593 25.5356 22.8818 25.462C22.8043 25.3884 22.7608 25.2886 22.7608 25.1844C22.7608 25.0803 22.8043 24.9805 22.8818 24.9069C22.9593 24.8333 23.0643 24.7919 23.1738 24.7919H24.826C24.9357 24.7919 25.0407 24.8333 25.1181 24.9069C25.1956 24.9805 25.2391 25.0803 25.2391 25.1844C25.2391 25.2886 25.1956 25.3884 25.1181 25.462C25.0407 25.5356 24.9357 25.577 24.826 25.577ZM26.8914 21.2589H26.4783V21.6515C26.4783 21.7556 26.4348 21.8554 26.3574 21.929C26.2798 22.0028 26.1748 22.0441 26.0652 22.0441C25.9557 22.0441 25.8507 22.0028 25.7731 21.929C25.6957 21.8554 25.6522 21.7556 25.6522 21.6515V21.2589H25.2391C25.1296 21.2589 25.0245 21.2176 24.9471 21.144C24.8695 21.0704 24.826 20.9705 24.826 20.8665C24.826 20.7623 24.8695 20.6624 24.9471 20.5888C25.0245 20.5152 25.1296 20.4739 25.2391 20.4739H26.8914C27.0009 20.4739 27.106 20.5152 27.1834 20.5888C27.2608 20.6624 27.3043 20.7623 27.3043 20.8665C27.3043 20.9705 27.2608 21.0704 27.1834 21.144C27.106 21.2176 27.0009 21.2589 26.8914 21.2589ZM21.1291 28.4898L19.9726 29.5888L20.3031 30.1383C20.3496 29.9388 20.4762 29.7644 20.6559 29.6522C20.8356 29.5401 21.0544 29.4991 21.2655 29.5378C21.3111 29.5452 21.3546 29.5612 21.3936 29.5849L22.7896 30.3622C22.8937 30.2681 23.0103 30.1875 23.1366 30.1226L21.1291 28.4898Z" fill="black"/>
<path d="M3.67015 17.3155L3.24283 18.5837L0.0895576 17.6239L0.497645 16.4127C0.602947 16.1004 0.752678 15.8978 0.947014 15.8044C1.1417 15.7101 1.37067 15.703 1.63392 15.7831C1.75531 15.8201 1.85746 15.8692 1.94038 15.9305C2.02207 15.9913 2.08381 16.0611 2.12544 16.1398C2.16568 16.2192 2.18229 16.3065 2.17548 16.4016C2.21308 16.3423 2.26188 16.2876 2.3217 16.2372C2.38048 16.1868 2.45026 16.1481 2.53126 16.1212C2.61225 16.0941 2.70145 16.0806 2.79888 16.0802C2.89509 16.0796 2.99986 16.0963 3.11322 16.1309C3.32277 16.1948 3.48003 16.2803 3.58515 16.3879C3.68922 16.4951 3.74643 16.6266 3.75709 16.7823C3.76707 16.9364 3.73803 17.1142 3.67015 17.3155ZM2.15238 17.4816L2.8204 17.6848L3.00529 17.1364C3.02541 17.0767 3.02943 17.022 3.01701 16.9725C3.00582 16.9235 2.97922 16.8806 2.93725 16.8441C2.89422 16.807 2.83492 16.7769 2.75935 16.7538C2.69061 16.7328 2.62834 16.7266 2.57254 16.7348C2.51674 16.743 2.46898 16.7632 2.42893 16.7955C2.38782 16.8275 2.35722 16.8733 2.3371 16.933L2.15238 17.4816ZM0.984446 17.126L1.59579 17.3122L1.7686 16.7997C1.79205 16.73 1.7812 16.6666 1.73607 16.6096C1.692 16.5532 1.62588 16.5114 1.53771 16.4845C1.4221 16.4493 1.33429 16.4477 1.27411 16.4799C1.21516 16.5123 1.17581 16.558 1.15604 16.6169L0.984446 17.126Z" fill="black"/>
<path d="M4.49789 15.3882L4.14315 16.0627L1.63182 13.7993L2.06213 12.9806L5.47481 13.53L5.11763 14.2092L4.50312 14.0975L4.03313 14.9914L4.49789 15.3882ZM2.43663 13.6756L3.49506 14.5462L3.80538 13.9559L2.43663 13.6756Z" fill="black"/>
<path d="M6.19355 12.52L5.75538 13.1239L3.02925 11.3379L3.81954 10.2486C3.89879 10.1395 3.98607 10.0482 4.08174 9.97477C4.17569 9.90162 4.28115 9.85292 4.39835 9.82831C4.51554 9.80372 4.64586 9.81019 4.78965 9.84743C4.93238 9.88417 5.0919 9.96014 5.26823 10.0755C5.38805 10.154 5.48285 10.2314 5.553 10.3081C5.62209 10.3839 5.67246 10.4585 5.70395 10.5318C5.73614 10.6043 5.75415 10.6749 5.75801 10.7441C5.76185 10.8132 5.75993 10.8814 5.75205 10.9484L7.16085 11.1866L6.71552 11.8005L5.46449 11.5532C5.44734 11.5766 5.42775 11.6027 5.40572 11.6313C5.38262 11.6592 5.36111 11.6866 5.34134 11.7139C5.32088 11.7422 5.30006 11.7708 5.27889 11.8C5.25773 11.8291 5.23797 11.8565 5.21942 11.8818L6.19355 12.52ZM4.03767 11.1075L4.71758 11.553L4.99098 11.1763C5.02176 11.1339 5.04276 11.0929 5.05395 11.0531C5.0669 11.0131 5.06811 10.9722 5.05745 10.9306C5.04521 10.8892 5.0216 10.8482 4.98696 10.8073C4.95057 10.7669 4.89984 10.7251 4.83443 10.6824C4.76813 10.639 4.70901 10.6086 4.65741 10.5913C4.60598 10.5757 4.56068 10.5717 4.5215 10.5794C4.48074 10.5873 4.44296 10.6041 4.40814 10.6299C4.37403 10.6547 4.34168 10.6884 4.3109 10.7308L4.03767 11.1075Z" fill="black"/>
<path d="M8.48254 9.81752L7.53449 10.7981L5.0961 8.66934L6.00148 7.73279C6.235 7.49125 6.46047 7.3669 6.6779 7.35992C6.89621 7.35195 7.10715 7.43689 7.31076 7.6146C7.40469 7.69654 7.47571 7.78182 7.52398 7.87042C7.57138 7.95836 7.59659 8.0463 7.59956 8.13425C7.60095 8.22235 7.5775 8.30812 7.52923 8.3919C7.58958 8.35301 7.65798 8.32275 7.73459 8.30114C7.81016 8.2787 7.89061 8.27138 7.97616 8.27919C8.06151 8.287 8.14863 8.31027 8.23713 8.34867C8.32476 8.38642 8.4124 8.44344 8.50003 8.52006C8.662 8.66153 8.76696 8.802 8.81488 8.94163C8.86194 9.08044 8.856 9.22257 8.79687 9.3682C8.73776 9.51215 8.63298 9.66193 8.48254 9.81752ZM7.03142 9.36287L7.54812 9.81387L7.95796 9.38981C8.00274 9.34358 8.03039 9.29556 8.04087 9.24584C8.05224 9.19681 8.04717 9.14726 8.0253 9.09723C8.00256 9.04636 7.96198 8.9955 7.90374 8.94446C7.85056 8.89809 7.79686 8.8675 7.74264 8.8527C7.68841 8.83791 7.63593 8.83724 7.58556 8.85054C7.53413 8.86318 7.4862 8.8926 7.44142 8.93881L7.03142 9.36287ZM6.12831 8.57442L6.60111 8.98719L6.98418 8.59089C7.0363 8.53702 7.05432 8.47519 7.03858 8.40553C7.02354 8.33654 6.98208 8.27238 6.91369 8.21286C6.82431 8.13474 6.74524 8.09833 6.67668 8.10348C6.6088 8.10947 6.55301 8.13523 6.50894 8.18062L6.12831 8.57442Z" fill="black"/>
<path d="M10.3143 8.23513C10.2595 8.27801 10.1903 8.3229 10.106 8.36961C10.0217 8.41798 9.92965 8.45106 9.8296 8.46885C9.72954 8.48664 9.62389 8.47617 9.51247 8.43761C9.40192 8.39838 9.29085 8.31442 9.17907 8.18593L8.04559 6.88165C7.94676 6.76795 7.88344 6.65841 7.85563 6.55285C7.82694 6.44629 7.82362 6.34904 7.84513 6.26094C7.86682 6.17284 7.90618 6.09071 7.96338 6.01474C8.0197 5.93794 8.08233 5.87244 8.15071 5.81876C8.33421 5.67463 8.49636 5.55262 8.63718 5.45255C8.77711 5.35164 8.90112 5.26386 9.0094 5.18907C9.11943 5.1146 9.21825 5.04809 9.30606 4.98958L9.72079 5.46651L8.78497 6.2011C8.72289 6.2498 8.6865 6.30133 8.676 6.35569C8.66551 6.40988 8.68579 6.46657 8.73705 6.52558L8.97022 6.79372L9.96132 6.0691L10.3484 6.51445L9.41014 7.29991L9.63177 7.5549C9.67392 7.60328 9.71433 7.63452 9.75298 7.64866C9.79339 7.66279 9.83275 7.66594 9.87123 7.65813C9.91059 7.64949 9.94644 7.63253 9.97881 7.60693L10.9312 6.85938L11.3435 7.33365C11.2517 7.42357 11.1474 7.52165 11.0309 7.62805C10.9153 7.73361 10.7952 7.83833 10.6703 7.94239C10.5455 8.04479 10.4269 8.14238 10.3143 8.23513Z" fill="black"/>
<path d="M12.4006 6.7693L11.7199 7.15695L10.8824 3.96543L11.7084 3.49483L14.2753 5.7014L13.5902 6.09173L13.135 5.68345L12.2332 6.19711L12.4006 6.7693ZM11.6311 4.2723L12.0313 5.54697L12.6267 5.2077L11.6311 4.2723Z" fill="black"/>
<path d="M15.4527 5.21667L14.7417 5.5021L13.4531 2.60348L14.7356 2.08864C14.8639 2.03711 14.9894 2.0047 15.1113 1.99157C15.2317 1.97794 15.3484 1.99056 15.4611 2.02981C15.5737 2.06886 15.6801 2.14085 15.7803 2.24573C15.88 2.34963 15.9715 2.49526 16.0548 2.68261C16.1115 2.80994 16.1476 2.9238 16.1635 3.02405C16.179 3.12329 16.1791 3.21189 16.1643 3.28985C16.1505 3.36732 16.1256 3.43631 16.0897 3.49648C16.0539 3.55682 16.0137 3.61318 15.9693 3.66588L17.0224 4.58632L16.2999 4.87638L15.3847 4.02893C15.357 4.04006 15.3258 4.05203 15.291 4.06467C15.2556 4.07631 15.222 4.0886 15.1899 4.10157C15.1566 4.11487 15.1228 4.1285 15.0885 4.1423C15.0543 4.15609 15.022 4.16907 14.9922 4.18104L15.4527 5.21667ZM14.4335 2.92431L14.755 3.64742L15.1986 3.46923C15.2484 3.44927 15.2893 3.42533 15.3213 3.39757C15.3549 3.37048 15.379 3.33657 15.3936 3.296C15.4065 3.25478 15.4101 3.20824 15.4039 3.15603C15.3963 3.10333 15.3768 3.04233 15.3459 2.97285C15.3145 2.90236 15.2818 2.84651 15.2481 2.80562C15.2136 2.76621 15.1776 2.73963 15.1404 2.72616C15.1015 2.71202 15.06 2.70687 15.0162 2.71085C14.9733 2.71435 14.9269 2.72616 14.8771 2.7461L14.4335 2.92431Z" fill="black"/>
<path d="M18.3345 4.21544L17.5963 4.42972L16.6293 1.42022L17.3676 1.20595L18.3345 4.21544Z" fill="black"/>
<path d="M19.6313 3.96427L18.8499 4.09509L19.2683 0.829925L20.2167 0.671173L21.7839 3.60403L20.9972 3.7357L20.7257 3.19992L19.6902 3.3733L19.6313 3.96427ZM19.8519 1.37102L19.7462 2.6974L20.43 2.58285L19.8519 1.37102Z" fill="black"/>
<path d="M25.4521 3.58807L24.4899 3.54866L23.6253 0.363632L24.4235 0.39638L25.0107 2.77569L25.8127 0.453232L26.6018 0.485481L25.4521 3.58807Z" fill="black"/>
<path d="M27.369 3.79055L26.5893 3.64991L28.1971 0.737167L29.1433 0.907889L29.5162 4.17804L28.7314 4.03641L28.6771 3.44395L27.6442 3.2576L27.369 3.79055ZM28.5415 1.4395L27.9484 2.64437L28.6306 2.76738L28.5415 1.4395Z" fill="black"/>
<path d="M30.7368 4.56552L30.0106 4.32747L31.09 1.35272L31.668 1.54206L32.2134 3.73485L32.8665 1.93487L33.5962 2.17391L32.5168 5.14866L31.9338 4.95767L31.3882 2.77019L30.7368 4.56552Z" fill="black"/>
<path d="M33.9444 5.87679C33.7626 5.78552 33.6331 5.67597 33.5559 5.54797C33.4797 5.42064 33.4444 5.27752 33.4498 5.11875C33.4552 4.95984 33.4926 4.78879 33.5619 4.60509C33.6309 4.42008 33.7215 4.22642 33.8335 4.02444C33.9549 3.80617 34.0791 3.61717 34.206 3.45725C34.3341 3.298 34.4715 3.17648 34.6186 3.0927C34.7664 3.00792 34.932 2.96952 35.1151 2.9775C35.2978 2.98399 35.505 3.04533 35.7367 3.16169C35.8813 3.23433 36.0063 3.30415 36.1119 3.37115C36.2173 3.4383 36.3139 3.50678 36.4014 3.5766C36.4879 3.64592 36.5758 3.71907 36.6651 3.79621L36.3862 4.29773C36.3316 4.26133 36.262 4.2166 36.1771 4.16374C36.0918 4.11187 35.9949 4.05485 35.8867 3.99286C35.7786 3.93068 35.6628 3.86885 35.5395 3.80684C35.3809 3.72738 35.2482 3.69231 35.1409 3.70178C35.0322 3.71176 34.9309 3.77144 34.8375 3.88082C34.743 3.98969 34.636 4.15177 34.5162 4.36704C34.4235 4.53378 34.3554 4.67341 34.312 4.78595C34.2673 4.898 34.2459 4.99176 34.2472 5.06739C34.2481 5.14402 34.2711 5.20786 34.3162 5.25906C34.3602 5.30959 34.4215 5.35464 34.5003 5.39404C34.6021 5.44524 34.6998 5.48646 34.7925 5.51755C34.8849 5.54715 34.9594 5.56843 35.0161 5.58123L35.262 5.13871L34.8012 4.90748L35.0868 4.39365C35.1481 4.41542 35.2189 4.44319 35.2995 4.47709C35.3799 4.511 35.4642 4.54758 35.5525 4.58681C35.6398 4.62555 35.719 4.66261 35.7903 4.69835C35.8818 4.74424 35.9619 4.78579 36.0309 4.82303C36.1006 4.85926 36.1626 4.89435 36.2172 4.92825L35.3194 6.54371L34.806 6.28605L34.8195 6.0525C34.7257 6.05964 34.5976 6.05282 34.4352 6.03205C34.2736 6.01177 34.1101 5.96006 33.9444 5.87679Z" fill="black"/>
<path d="M36.9204 7.66628C36.7725 7.56256 36.643 7.45483 36.5325 7.34329C36.4215 7.23009 36.3412 7.1084 36.2914 6.97841C36.2415 6.84824 36.2323 6.7091 36.2635 6.56067C36.295 6.41238 36.3778 6.25179 36.5121 6.07892L37.8363 4.3727L38.4574 4.80806L37.1353 6.51162C37.0768 6.5871 37.0473 6.65991 37.0464 6.73022C37.0447 6.80154 37.0687 6.87085 37.1181 6.93818C37.1667 7.00634 37.2375 7.073 37.3305 7.13799C37.4214 7.20183 37.5084 7.24571 37.5912 7.26982C37.6744 7.29542 37.7511 7.29674 37.8214 7.27347C37.8919 7.25187 37.9564 7.20349 38.0149 7.12801L39.3369 5.42462L39.958 5.85998L38.634 7.56621C38.4997 7.7391 38.3634 7.86211 38.2245 7.93508C38.0847 8.0074 37.9414 8.03981 37.795 8.03233C37.6495 8.02551 37.5045 7.9891 37.3599 7.92311C37.2159 7.85629 37.0695 7.77067 36.9204 7.66628Z" fill="black"/>
<path d="M38.778 9.13528L38.2188 8.60018L41.2786 7.06268L41.9572 7.71199L40.3183 10.6091L39.7554 10.0705L40.0632 9.55271L39.3223 8.84372L38.778 9.13528ZM41.1446 7.82686L39.9382 8.50161L40.4275 8.96988L41.1446 7.82686Z" fill="black"/>
<path d="M41.0951 11.5793L40.6332 10.9915L43.2861 9.10852L44.1192 10.1686C44.2028 10.2748 44.2656 10.3827 44.3082 10.4923C44.3509 10.6001 44.3658 10.7108 44.3529 10.8242C44.34 10.9376 44.2919 11.053 44.2086 11.1705C44.1264 11.2874 43.9997 11.4065 43.8282 11.5282C43.7117 11.611 43.604 11.6717 43.5053 11.7104C43.4075 11.7483 43.317 11.7698 43.2339 11.7746C43.1514 11.7804 43.0752 11.7739 43.0049 11.7553C42.9347 11.7367 42.8673 11.7131 42.8029 11.6847L42.1149 12.8769L41.6454 12.2796L42.2922 11.2322C42.2742 11.2092 42.2546 11.1833 42.2333 11.1544C42.213 11.1246 42.1923 11.0965 42.1713 11.0699C42.1499 11.0425 42.1278 11.0146 42.1056 10.9861C42.0833 10.9577 42.0624 10.9313 42.0429 10.9065L41.0951 11.5793ZM43.1931 10.0901L42.5313 10.5597L42.8195 10.9265C42.8517 10.9677 42.8861 10.9998 42.9221 11.0227C42.9579 11.0473 42.9983 11.0614 43.0431 11.0651C43.0883 11.0673 43.1368 11.0593 43.1884 11.041C43.2405 11.0212 43.2981 10.9888 43.3619 10.9436C43.4264 10.8977 43.4756 10.8543 43.5093 10.8132C43.5413 10.772 43.5599 10.7325 43.5648 10.6947C43.5698 10.6555 43.5651 10.6159 43.5506 10.5765C43.5368 10.538 43.5136 10.4979 43.4812 10.4567L43.1931 10.0901Z" fill="black"/>
<path d="M43.0632 14.5296L42.3793 13.334L45.2883 11.8309L45.9723 13.0265C46.0843 13.2223 46.1392 13.402 46.137 13.5656C46.1359 13.7287 46.0913 13.8818 46.0035 14.0247C45.9161 14.1662 45.7914 14.2975 45.6297 14.4189C45.4695 14.5407 45.2847 14.6556 45.0755 14.7638C44.7419 14.9361 44.4476 15.0414 44.1929 15.0793C43.9388 15.1182 43.7189 15.0915 43.5332 14.9988C43.3463 14.9068 43.1896 14.7504 43.0632 14.5296ZM45.0486 12.7898L43.3548 13.665L43.634 14.1527C43.6922 14.2541 43.768 14.3188 43.8621 14.347C43.9557 14.3741 44.0727 14.3683 44.2134 14.3294C44.3539 14.2905 44.5192 14.222 44.7094 14.1238C44.89 14.0305 45.0309 13.9453 45.132 13.8685C45.2347 13.792 45.305 13.7212 45.3431 13.656C45.3821 13.5904 45.3986 13.5272 45.3927 13.4665C45.3863 13.4048 45.3645 13.3418 45.3277 13.2777L45.0486 12.7898Z" fill="black"/>
<path d="M44.0202 16.5472L43.7547 15.8365L47.2122 15.6862L47.5345 16.5488L44.7516 18.5046L44.4843 17.7891L44.9951 17.4457L44.6433 16.5041L44.0202 16.5472ZM46.7478 16.323L45.354 16.4444L45.5863 17.0662L46.7478 16.323Z" fill="black"/>
<path d="M1.38449 31.5593L0.956985 30.2911L4.11026 29.3312L4.51853 30.5423C4.62383 30.8546 4.62593 31.1023 4.52465 31.2854C4.42389 31.4697 4.24179 31.6019 3.97854 31.682C3.85715 31.719 3.74397 31.7354 3.6392 31.7314C3.53547 31.7268 3.44259 31.7042 3.36056 31.6631C3.27939 31.6208 3.2124 31.5588 3.15975 31.4778C3.16535 31.5469 3.15923 31.6185 3.14121 31.6922C3.12423 31.7657 3.09117 31.8358 3.04167 31.9024C2.99217 31.969 2.92797 32.0294 2.84892 32.0835C2.77107 32.1372 2.6754 32.1812 2.56205 32.2157C2.3525 32.2796 2.17215 32.2966 2.02067 32.2672C1.87041 32.2372 1.74342 32.162 1.6397 32.0412C1.53737 31.9212 1.45236 31.7604 1.38449 31.5593ZM2.51832 30.5859L1.8503 30.7894L2.03519 31.3378C2.0553 31.3977 2.08557 31.4442 2.1258 31.4777C2.16498 31.5114 2.21273 31.5315 2.26923 31.5383C2.32695 31.5447 2.3936 31.5364 2.46917 31.5133C2.53791 31.4924 2.59248 31.4633 2.63289 31.4258C2.6733 31.3882 2.69988 31.3455 2.71265 31.297C2.72664 31.2484 2.72349 31.1942 2.70321 31.1344L2.51832 30.5859ZM3.68625 30.2306L3.07491 30.4166L3.24756 30.929C3.27099 30.9987 3.31857 31.0442 3.39012 31.0658C3.46061 31.0874 3.53985 31.085 3.62819 31.058C3.74381 31.0228 3.81623 30.9756 3.84543 30.9162C3.87359 30.8572 3.87762 30.7984 3.85785 30.7396L3.68625 30.2306Z" fill="black"/>
<path d="M2.35074 33.8102L1.99601 33.1356L5.40869 32.5862L5.83899 33.4049L3.32768 35.6684L2.97066 34.9891L3.43367 34.5892L2.96366 33.6953L2.35074 33.8102ZM5.02929 33.2721L3.66141 33.5537L3.97172 34.144L5.02929 33.2721Z" fill="black"/>
<path d="M4.21749 36.9534L3.77931 36.3495L6.50526 34.5636L7.29553 35.6528C7.37478 35.7617 7.43338 35.8718 7.47151 35.983C7.50999 36.0924 7.52049 36.2035 7.50316 36.3162C7.48567 36.4289 7.43302 36.5425 7.34505 36.6572C7.25829 36.771 7.12674 36.8855 6.95059 37.0009C6.83077 37.0794 6.72093 37.1361 6.6207 37.1713C6.52152 37.2057 6.43039 37.2238 6.34695 37.2257C6.26421 37.2286 6.18829 37.2195 6.11886 37.1982C6.04941 37.1772 5.98312 37.1511 5.91997 37.1204L5.18479 38.287L4.73944 37.6732L5.42757 36.6497C5.41044 36.6263 5.3919 36.5996 5.37177 36.5699C5.35254 36.5395 5.33311 36.5105 5.31318 36.4832C5.29272 36.455 5.2719 36.4263 5.25073 36.3972C5.22957 36.3681 5.2098 36.3408 5.19144 36.3153L4.21749 36.9534ZM6.37336 35.5411L5.69328 35.9865L5.96668 36.3632C5.99746 36.4057 6.03034 36.4388 6.06534 36.4631C6.10014 36.4889 6.13984 36.5046 6.18463 36.5098C6.22975 36.5136 6.27838 36.5073 6.33085 36.491C6.3835 36.4732 6.44263 36.4429 6.50805 36.4C6.57435 36.3565 6.62524 36.3149 6.6604 36.2749C6.69417 36.2349 6.7141 36.1959 6.72058 36.1585C6.72723 36.1196 6.72408 36.08 6.71113 36.0398C6.69889 36.0009 6.67737 35.9601 6.64659 35.9177L6.37336 35.5411Z" fill="black"/>
<path d="M6.71499 39.9044L5.76691 38.9239L8.2053 36.7951L9.11068 37.7315C9.3442 37.9731 9.45544 38.1969 9.44443 38.4036C9.43428 38.6111 9.3274 38.8035 9.12379 38.9814C9.02986 39.0634 8.93454 39.1233 8.83764 39.1616C8.74159 39.199 8.64714 39.2154 8.5546 39.2108C8.46208 39.2047 8.37409 39.1753 8.29048 39.1225C8.32599 39.183 8.35206 39.2503 8.36832 39.3247C8.38546 39.3981 8.38633 39.4749 8.37076 39.5552C8.35521 39.6355 8.32354 39.7158 8.27578 39.7962C8.22891 39.8761 8.16157 39.9542 8.07376 40.0308C7.91178 40.1724 7.75558 40.2598 7.60515 40.2934C7.4556 40.3261 7.30708 40.3085 7.15945 40.2403C7.01356 40.1721 6.86541 40.0602 6.71499 39.9044ZM7.31443 38.569L6.79789 39.0199L7.20772 39.4441C7.25251 39.4902 7.30044 39.5204 7.35186 39.5348C7.40224 39.5498 7.45455 39.5491 7.50894 39.5327C7.56421 39.5155 7.62106 39.4813 7.67931 39.4303C7.73248 39.3839 7.76905 39.3357 7.78917 39.2854C7.80928 39.2352 7.81452 39.1857 7.80472 39.137C7.79581 39.0873 7.76905 39.0393 7.72444 38.993L7.31443 38.569ZM8.21754 37.7805L7.74474 38.1933L8.12781 38.5895C8.17993 38.6435 8.24308 38.6658 8.31759 38.6566C8.39106 38.6483 8.46208 38.6144 8.53012 38.5549C8.61951 38.4767 8.66446 38.4051 8.66481 38.3393C8.66428 38.2748 8.64207 38.2195 8.59816 38.1741L8.21754 37.7805Z" fill="black"/>
<path d="M8.75123 41.7421C8.69648 41.6992 8.637 41.6428 8.57298 41.5731C8.50704 41.5037 8.45561 41.4239 8.41835 41.334C8.38109 41.2441 8.372 41.1434 8.39054 41.032C8.41013 40.9215 8.4759 40.802 8.58767 40.6733L9.72132 39.369C9.82016 39.2554 9.92144 39.1756 10.0253 39.1299C10.1299 39.0829 10.2298 39.0614 10.325 39.0649C10.4201 39.0684 10.5123 39.0896 10.6017 39.1287C10.6918 39.1667 10.771 39.2128 10.8396 39.2666C11.0231 39.4108 11.1798 39.5389 11.3099 39.6514C11.4406 39.7629 11.5548 39.8621 11.6523 39.9491C11.75 40.0377 11.8373 40.1172 11.9146 40.1882L11.4999 40.6653L10.5643 39.9308C10.5022 39.882 10.4422 39.8578 10.3839 39.8582C10.3259 39.8585 10.2713 39.8882 10.22 39.9472L9.98685 40.2156L10.9229 41.0036L10.5357 41.449L9.54693 40.7216L9.32531 40.9767C9.28316 41.025 9.25848 41.0688 9.25131 41.1075C9.24432 41.1479 9.24852 41.1853 9.26373 41.2196C9.28001 41.2547 9.30449 41.285 9.33702 41.3104L10.2895 42.058L9.87701 42.5325C9.7668 42.4637 9.64577 42.385 9.51387 42.2963C9.38286 42.2083 9.25202 42.1159 9.12101 42.0191C8.99174 41.9219 8.86842 41.8297 8.75123 41.7421Z" fill="black"/>
<path d="M11.1667 43.3661L10.4861 42.9785L13.053 40.7719L13.879 41.2425L13.0415 44.434L12.3561 44.0438L12.5204 43.4698L11.6187 42.9562L11.1667 43.3661ZM13.1211 41.544L12.1268 42.4804L12.7224 42.8196L13.1211 41.544Z" fill="black"/>
<path d="M14.5185 45.0634L13.8074 44.778L15.0962 41.8794L16.3787 42.3942C16.5071 42.4457 16.6188 42.5085 16.7138 42.5827C16.808 42.6553 16.8798 42.7436 16.9289 42.8477C16.9779 42.9517 16.9979 43.0745 16.9884 43.2159C16.9794 43.3562 16.9335 43.5202 16.8501 43.7072C16.7936 43.8346 16.733 43.9386 16.6683 44.0195C16.6041 44.0991 16.5374 44.161 16.4684 44.2051C16.4003 44.2498 16.3308 44.2807 16.2603 44.2986C16.1898 44.3162 16.1193 44.3282 16.0487 44.3344L16.0884 45.6938L15.3659 45.4035L15.3672 44.1892C15.3396 44.178 15.3089 44.1651 15.2748 44.1503C15.2415 44.1343 15.2087 44.12 15.1767 44.1071C15.1436 44.0938 15.1097 44.0802 15.0753 44.0665C15.041 44.0527 15.0089 44.0397 14.9791 44.0278L14.5185 45.0634ZM15.5378 42.7711L15.2163 43.4941L15.6599 43.6721C15.7097 43.6921 15.7562 43.7034 15.7995 43.7059C15.8433 43.71 15.8856 43.7028 15.9264 43.6844C15.9666 43.6646 16.0041 43.6343 16.0392 43.5939C16.0736 43.5519 16.1063 43.4962 16.137 43.4266C16.1684 43.3562 16.1877 43.295 16.1949 43.2434C16.2008 43.1923 16.1957 43.1494 16.1799 43.1145C16.1634 43.0781 16.1384 43.0463 16.1046 43.0192C16.0722 42.9924 16.031 42.9692 15.9812 42.9491L15.5378 42.7711Z" fill="black"/>
<path d="M17.6337 46.1449L16.8953 45.9306L17.8625 42.9212L18.6006 43.1354L17.6337 46.1449Z" fill="black"/>
<path d="M19.2149 46.4609L18.4334 46.33L20.0007 43.3974L20.949 43.5562L21.3675 46.8214L20.5808 46.6894L20.5182 46.0979L19.4829 45.9245L19.2149 46.4609ZM20.3547 44.0953L19.7786 45.3075L20.4623 45.422L20.3547 44.0953Z" fill="black"/>
<path d="M25.5554 46.8697L24.5934 46.9091L23.4437 43.8066L24.2418 43.774L25.0421 46.0964L25.631 43.7171L26.4203 43.6847L25.5554 46.8697Z" fill="black"/>
<path d="M27.8166 46.6291L27.0369 46.7699L27.4099 43.4996L28.356 43.329L29.9639 46.2419L29.179 46.3834L28.9002 45.851L27.8671 46.0374L27.8166 46.6291ZM28.0011 44.0333L27.9138 45.361L28.596 45.2378L28.0011 44.0333Z" fill="black"/>
<path d="M31.5192 45.7697L30.793 46.0077L29.7138 43.033L30.2917 42.8435L32.1433 44.2511L31.4902 42.4509L32.22 42.2116L33.2992 45.1866L32.7162 45.3776L30.8679 43.9745L31.5192 45.7697Z" fill="black"/>
<path d="M35.0855 44.3553C34.9038 44.4467 34.7355 44.4865 34.5809 44.4749C34.4273 44.4628 34.283 44.4099 34.148 44.3164C34.013 44.2225 33.8852 44.0967 33.7649 43.9388C33.6428 43.7804 33.5256 43.6001 33.4133 43.3981C33.2921 43.1798 33.1976 42.9759 33.1302 42.7862C33.0641 42.5958 33.0359 42.4195 33.0462 42.2566C33.0558 42.0928 33.1157 41.9412 33.2258 41.802C33.3344 41.6623 33.5046 41.5343 33.7364 41.4177C33.8811 41.345 34.0122 41.2864 34.13 41.2415C34.2477 41.1967 34.3617 41.1594 34.4718 41.13C34.5807 41.1011 34.694 41.0735 34.8111 41.047L35.09 41.5485C35.0274 41.5708 34.9494 41.6004 34.8555 41.6371C34.7622 41.6749 34.6583 41.7188 34.5432 41.7686C34.4283 41.8186 34.3091 41.8745 34.1858 41.9366C34.0272 42.016 33.9219 42.1007 33.8699 42.1901C33.8172 42.2812 33.812 42.3942 33.8544 42.5293C33.8957 42.665 33.9764 42.8403 34.0959 43.0554C34.1886 43.2223 34.2714 43.3543 34.3448 43.4519C34.4171 43.55 34.4865 43.6198 34.553 43.6614C34.62 43.704 34.6884 43.7219 34.7583 43.7152C34.827 43.7092 34.9007 43.6865 34.9794 43.647C35.0814 43.5958 35.1722 43.5424 35.2515 43.4871C35.3292 43.4313 35.3897 43.3847 35.4329 43.3475L35.187 42.905L34.7262 43.1364L34.4406 42.6225C34.4942 42.5866 34.5582 42.5468 34.6331 42.5027C34.7079 42.4586 34.7871 42.4131 34.8711 42.366C34.9538 42.3193 35.031 42.278 35.1021 42.2422C35.1936 42.1964 35.2749 42.1568 35.3462 42.1235C35.4168 42.0893 35.4824 42.0604 35.5427 42.0367L36.4404 43.6521L35.927 43.91L35.7317 43.7676C35.6852 43.8452 35.607 43.942 35.4974 44.0577C35.3886 44.1729 35.2514 44.2721 35.0855 44.3553Z" fill="black"/>
<path d="M38.3709 42.3814C38.2228 42.4851 38.0763 42.5708 37.9314 42.6383C37.7848 42.7053 37.6387 42.7424 37.4932 42.7492C37.3477 42.7561 37.2049 42.7234 37.0653 42.6511C36.9255 42.5788 36.7884 42.456 36.6543 42.2833L35.3302 40.577L35.9514 40.1415L37.2733 41.8451C37.332 41.9206 37.3963 41.969 37.4668 41.9906C37.5381 42.013 37.6149 42.0118 37.6971 41.9868C37.78 41.9626 37.8679 41.9181 37.9608 41.8531C38.0518 41.7892 38.1216 41.7235 38.1702 41.6551C38.2206 41.5871 38.2446 41.5178 38.2419 41.4473C38.241 41.377 38.2113 41.304 38.1529 41.2285L36.8308 39.5251L37.4521 39.0898L38.7763 40.7961C38.9104 40.9689 38.9937 41.1292 39.0261 41.2768C39.0576 41.425 39.0478 41.5647 38.9968 41.6953C38.947 41.8255 38.8677 41.9463 38.7586 42.0582C38.649 42.1692 38.5197 42.2768 38.3709 42.3814Z" fill="black"/>
<path d="M40.4811 40.6509L39.9219 41.186L38.2829 38.2889L38.9616 37.6394L42.0213 39.177L41.4584 39.7158L40.9116 39.4268L40.1706 40.1357L40.4811 40.6509ZM39.0881 38.4111L39.8063 39.5527L40.2957 39.0845L39.0881 38.4111Z" fill="black"/>
<path d="M43.018 37.9645L42.5562 38.5523L39.9033 36.6692L40.7364 35.6092C40.8199 35.503 40.9108 35.415 41.0094 35.345C41.1061 35.2753 41.2135 35.2304 41.3313 35.21C41.4495 35.1898 41.5795 35.2007 41.7217 35.2433C41.8629 35.2851 42.0193 35.3668 42.1908 35.4884C42.3072 35.5714 42.3991 35.6521 42.4662 35.7311C42.5323 35.8093 42.5796 35.8857 42.6081 35.9602C42.6373 36.0336 42.6525 36.105 42.6535 36.1743C42.6546 36.2435 42.6501 36.3116 42.6396 36.3782L44.0379 36.6669L43.5684 37.2642L42.3282 36.9721C42.3102 36.9951 42.2896 37.0204 42.2662 37.0482C42.2419 37.0751 42.2196 37.102 42.1986 37.1284C42.1771 37.1558 42.1551 37.1837 42.1329 37.2122C42.1104 37.2406 42.0897 37.2671 42.0702 37.2918L43.018 37.9645ZM40.92 36.4755L41.5818 36.9452L41.8699 36.5785C41.9023 36.5373 41.925 36.497 41.9377 36.4576C41.9523 36.418 41.9551 36.3773 41.9461 36.3353C41.9355 36.2935 41.9137 36.2516 41.8807 36.2096C41.8461 36.1679 41.797 36.1245 41.7333 36.0793C41.6688 36.0335 41.611 36.001 41.56 35.9821C41.5092 35.9647 41.4642 35.959 41.4246 35.9651C41.3835 35.9716 41.3449 35.9871 41.3094 36.0116C41.2743 36.0352 41.2405 36.0676 41.2083 36.1087L40.92 36.4755Z" fill="black"/>
<path d="M45.1719 34.7388L44.4879 35.9344L41.5791 34.4313L42.263 33.2359C42.375 33.04 42.5039 32.8986 42.6495 32.8113C42.7943 32.7235 42.9536 32.6758 43.1277 32.6682C43.3001 32.6611 43.4838 32.689 43.679 32.7521C43.8737 32.8137 44.0756 32.8986 44.2847 33.0064C44.6184 33.1789 44.8714 33.3564 45.0435 33.5391C45.2162 33.7206 45.312 33.9105 45.331 34.1091C45.3513 34.3081 45.2982 34.518 45.1719 34.7388ZM42.5562 34.1012L44.2499 34.9763L44.5289 34.4886C44.5871 34.3872 44.6026 34.2913 44.5765 34.201C44.5495 34.1117 44.4809 34.0215 44.3699 33.9303C44.2592 33.8393 44.1087 33.7447 43.9187 33.6464C43.7379 33.5532 43.5862 33.487 43.4634 33.4483C43.3401 33.4079 43.2395 33.3903 43.161 33.3955C43.0818 33.4 43.0172 33.4212 42.9668 33.4589C42.9158 33.4977 42.872 33.5492 42.8352 33.6134L42.5562 34.1012Z" fill="black"/>
<path d="M46.2819 32.3951L46.0164 33.1057L43.2336 31.15L43.5558 30.2874L47.0135 30.4377L46.746 31.1532L46.1217 31.1135L45.7698 32.055L46.2819 32.3951ZM44.0166 30.934L45.1787 31.6755L45.411 31.0535L44.0166 30.934Z" fill="black"/>
<path d="M0 24.0895C0 23.4196 0.571463 22.8767 1.27621 22.8765C1.98114 22.8765 2.55243 23.4196 2.55243 24.0895C2.55243 24.7594 1.98096 25.3024 1.27621 25.3024C0.571287 25.3024 0 24.7593 0 24.0895Z" fill="black"/>
<path d="M45.4476 24.0895C45.4476 23.4196 46.0191 22.8767 46.7238 22.8765C47.4287 22.8765 48 23.4196 48 24.0895C48 24.7594 47.4285 25.3024 46.7238 25.3024C46.0188 25.3024 45.4476 24.7593 45.4476 24.0895Z" fill="black"/>
</svg>
